<?xml version="1.0" encoding="UTF-8" standalone="no"?>
<!DOCTYPE svg PUBLIC "-//W3C//DTD SVG 1.1//EN" "http://www.w3.org/Graphics/SVG/1.1/DTD/svg11.dtd">
<svg width="100%" height="100%" viewBox="0 0 84 253" version="1.1" xmlns="http://www.w3.org/2000/svg" xmlns:xlink="http://www.w3.org/1999/xlink" xml:space="preserve" xmlns:serif="http://www.serif.com/" style="fill-rule:evenodd;clip-rule:evenodd;stroke-linejoin:round;stroke-miterlimit:2;">
    <g transform="matrix(1,0,0,1,-705.240575,-1320.273298)">
        <g transform="matrix(1,0,0,1,455,1146)">
            <path d="M322.001,303.547C323.746,327.836 327.268,339.593 320.779,363.57C318.387,372.411 321.575,374.982 320.613,391.504C320.459,394.149 319.912,403.539 317.172,424.448C316.815,427.17 315.565,426.62 298.5,426.62C291.797,426.62 287.413,427.013 286.985,425.334C286.458,423.261 281.344,394.133 281.186,392.539C280.203,382.615 279.895,382.57 277.917,380.148C267.99,367.995 266.283,348.607 271.889,338.71C273.641,335.617 270.809,336.061 264.855,326.278C258.232,315.397 248.767,296.112 250.434,290.48C250.434,290.48 272.96,241.916 275.976,237.874C279.695,232.89 285.293,233.868 287.186,230.338C294.005,217.619 293.651,217.085 292.79,216.229C291.746,215.191 288.094,213.926 285.676,209.36C283.778,205.775 283.315,212.03 278.305,216.258C270.661,222.71 255.602,220.119 258.74,216.675C259.522,215.817 260.415,215.065 261.225,214.235C267.308,208.001 258.988,196.966 262.833,184.607C263.684,181.873 270.617,168.222 288.34,177.817C292.518,180.079 293.851,171.45 312.552,175.257C317.645,176.294 327.675,181.544 328.077,187.543C328.571,194.91 328.693,194.89 328.541,195.51C327.134,201.256 327.333,201.514 330.396,206.563C332.674,210.319 328.424,209.876 328.117,212.477C327.994,213.523 328.804,215.311 325.491,214.777C321.096,214.067 324.049,216.673 324.334,216.774C324.615,216.874 324.924,216.88 325.21,216.965C327.839,217.746 326.214,218.813 326.28,222.506C326.387,228.423 315.766,225.139 313.718,227.669C313.571,227.852 309.157,234.49 310.248,237.588C313.578,247.049 332.621,274.301 332.665,274.435C336.66,286.646 321.866,290.556 321.042,293.36C320.887,293.889 320.617,293.926 322.001,303.547ZM309.421,327.857C306.72,327.438 306.74,327.413 306.504,327.405C282.01,326.528 282.113,366.543 303.509,364.617C324.884,362.693 328.713,333.681 309.421,327.857ZM273.076,299.541C273.391,301.672 276.342,321.656 279.16,325.768C279.44,326.177 280.78,328.133 284.355,322.407C287.843,316.821 279.883,288.786 279.572,288.422C278.362,287 278.306,288.609 274.197,294.292C272.494,296.648 272.908,297.5 273.076,299.541Z"/>
        </g>
        <g transform="matrix(1,0,0,1,455,1146)">
            <path d="M302.191,343.705C295.493,337.137 305.592,334.347 309.123,337.875C314.202,342.949 309.515,352.336 308.727,354.59C307.163,359.065 302.693,354.937 301.473,355.408C300.596,355.746 299.762,359.579 297.783,355.378C296.853,353.404 297.343,353.034 299.412,352.398C300.543,350.407 300.569,350.373 302.664,349.586L302.924,348.612C302.779,348.237 303.149,347.783 303.004,347.409C302.812,346.914 302.262,346.638 301.985,346.186C301.429,345.281 301.834,345.233 302.191,343.705Z"/>
        </g>
    </g>
</svg>
