<?xml version="1.0" encoding="UTF-8" standalone="no"?>
<!DOCTYPE svg PUBLIC "-//W3C//DTD SVG 1.1//EN" "http://www.w3.org/Graphics/SVG/1.1/DTD/svg11.dtd">
<svg width="100%" height="100%" viewBox="0 0 92 253" version="1.1" xmlns="http://www.w3.org/2000/svg" xmlns:xlink="http://www.w3.org/1999/xlink" xml:space="preserve" xmlns:serif="http://www.serif.com/" style="fill-rule:evenodd;clip-rule:evenodd;stroke-linejoin:round;stroke-miterlimit:2;">
    <g transform="matrix(1,0,0,1,-1035.526005,-1032.960886)">
        <g transform="matrix(1,0,0,1,473,857)">
            <path d="M616.5,175.961C618.475,176.011 633.07,176.384 639.199,185.686C641.215,188.745 641.14,196.666 640.886,197.604C639.322,203.392 640.048,203.577 643.117,208.703C644.922,211.717 640.943,212.031 640.75,213.57C640.668,214.224 640.778,214.897 640.661,215.545C640.305,217.517 639.517,216.62 637.509,216.318C634.854,215.918 635.092,217.805 636.559,218.397C637.397,218.734 637.4,218.537 638.218,218.834C640.194,219.551 638.588,221.21 638.645,222.486C638.755,224.938 640.145,228.13 630.5,228.192C627.553,228.211 626.622,227.678 623.725,233.607C622.925,235.244 619.759,238.39 632.061,253.855C644.309,269.252 658.122,273.656 643.176,289.186C637.027,295.575 648.273,300.742 652.738,325.459C660.011,365.723 634.902,385.646 633.776,391.568C632.415,398.724 633.661,398.83 631.212,416.46C630.66,420.439 630.545,427.317 629.308,428.095C628.932,428.331 623.965,428.331 623.5,428.331C601.265,428.334 601.076,428.459 600.298,427.677C599.934,427.312 595.875,410.073 593.109,386.551C592.349,380.084 582.613,379.103 581.541,354.499C581.055,343.337 586.778,341.274 584.17,337.745C583.077,336.265 575.71,326.295 571.8,318.355C561.502,297.437 562.242,294.686 562.81,292.577C564.124,287.695 579.681,256.466 581.226,253.363C588.365,239.032 587.83,237.683 597.405,234.188C599.463,233.436 600.985,229.216 604.774,221.637C606.894,217.396 604.689,217.558 602.708,216.19C598.081,212.996 597.333,207.176 595.576,211.543C593.27,217.275 584.767,224.809 572.346,220.902C567.46,219.364 575.206,216.487 576.054,211.443C576.709,207.545 568.113,181.594 584.619,176.945C595.839,173.785 599.645,181.118 603.483,179.465C609.734,176.774 609.676,176.394 616.5,175.961ZM623.504,371.111C627.884,370.65 629.695,371.751 639.428,365.395C654.341,355.657 657.776,318.882 630.51,316.307C616.852,315.018 600.488,330.262 604.238,353.548C606.99,370.631 622.362,370.976 623.504,371.111ZM586.052,305.547C586.394,307.428 590.183,328.284 592.48,328.562C593.286,328.66 597.892,324.908 598.114,320.48C598.236,318.04 598.476,313.246 592.609,290.443C592.463,289.876 591.511,288.336 589.972,290.844C589.695,291.297 587.907,294.21 586.337,296.391C585.12,298.081 585.098,298.21 586.052,305.547Z"/>
        </g>
        <g transform="matrix(1,0,0,1,473,857)">
            <path d="M606.388,348.493C605.598,332.07 614.577,323.74 620.694,320.894C631.69,315.777 640.384,321.762 642.101,323.862C643.749,325.875 648.748,328.989 647.894,344.536C647.812,346.021 646.566,354.54 642.276,359.323C636.737,365.499 626.766,371.205 617.603,367.258C608.658,363.405 608.313,358.387 607.264,355.548C606.533,353.571 606.55,353.617 606.337,351.5C606.184,349.982 606.118,350.026 606.388,348.493Z" style="fill:rgb(172,172,172);"/>
        </g>
        <g transform="matrix(1,0,0,1,473,857)">
            <path d="M641.384,340.588C649.049,349.533 637.502,358.447 633.569,361.603L631.707,362.826C627.877,364.558 627.435,364.923 623.559,363.366C619.492,363.24 619.583,362.762 619.398,362.71C614.155,358.297 618.101,354.472 615.548,354.407C614.883,354.391 614.251,354.712 613.591,354.794C609.643,355.287 606.56,349.943 609.416,349.27C609.783,349.183 610.18,349.388 610.547,349.301L612.34,349.352C614.813,346.574 615.684,347.536 622.134,340.097C623.272,339.606 623.246,339.67 624.503,339.514L625.566,338.509C625.73,329.442 625.646,329.419 625.979,328.709C630.135,319.813 648.942,324.238 641.622,337.568L640.939,339.619L641.384,340.588Z" style="fill:rgb(78,78,78);"/>
        </g>
    </g>
</svg>
