<?xml version="1.0" encoding="UTF-8" standalone="no"?>
<!DOCTYPE svg PUBLIC "-//W3C//DTD SVG 1.1//EN" "http://www.w3.org/Graphics/SVG/1.1/DTD/svg11.dtd">
<svg width="100%" height="100%" viewBox="0 0 84 253" version="1.1" xmlns="http://www.w3.org/2000/svg" xmlns:xlink="http://www.w3.org/1999/xlink" xml:space="preserve" xmlns:serif="http://www.serif.com/" style="fill-rule:evenodd;clip-rule:evenodd;stroke-linejoin:round;stroke-miterlimit:2;">
    <g transform="matrix(1,0,0,1,-618.304873,-1031.313779)">
        <g transform="matrix(1,0,0,1,473,857)">
            <path d="M218.051,312.523C223.04,359.359 213.663,359.204 215.318,372.523C215.832,376.655 217.398,389.253 212.447,424.493C212.067,427.193 210.826,426.631 194.5,426.631C185.554,426.631 182.68,427.273 182.097,424.609C177.642,404.26 178.381,404.165 175.406,383.52C175.093,381.343 162.932,371.785 163.967,349.515C164.324,341.841 169.173,338.484 166.663,335.379C151.594,316.736 145.185,294.335 145.307,292.488C145.569,288.506 155.546,270.193 163.243,253.377C172.062,234.108 173.638,234.657 179.578,232.749C181.88,232.009 182.154,230.877 187.34,220.42C188.471,218.138 189.675,217.322 186.216,214.894C185.459,214.362 182.762,212.919 180.796,209.232C178.505,204.936 179.843,213.139 170.393,218.296C164.243,221.653 151.235,220.276 153.886,216.781C155.149,215.116 159.598,212.645 158.792,207.457C158.532,205.782 150.298,174.555 172.5,174.555C181.539,174.555 182.916,180.013 187.367,177.269C198.899,170.161 222.747,176.645 223.294,188.51C223.501,193.01 224.223,193.026 223.263,197.44C221.326,206.347 229.492,207.527 225.3,210.218C223.566,211.332 223.527,211.45 223.456,213.498C223.361,216.238 218.14,213.671 218.215,215.507C218.302,217.617 222.982,215.668 221.603,219.539C220.774,221.864 223.447,224.973 217.431,226.182C212.155,227.243 210.237,224.997 207.742,229.637C203.42,237.671 205.66,238.216 209.779,246.356C210.938,248.647 220.316,263.937 223.782,268.284C233.32,280.246 227.771,285.201 217.681,291.82C214.909,293.638 216.455,294.506 218.051,312.523ZM179.979,311.451C178.995,305.365 179.116,305.394 177.706,299.438C175.21,288.899 175.485,288.679 174.666,288.241C172.925,287.309 173.191,288.543 172.134,290.231C168.905,295.387 167.866,295.097 168.133,298.541C169.021,309.991 173.326,322.654 174.016,324.684C174.04,324.754 174.54,327.841 176.666,325.708C180.694,321.667 180.994,320.885 179.979,311.451ZM200.488,363.101C221.254,359.892 219.557,335.569 207.534,332.386C191.246,328.074 185.258,350.906 191.008,358.857C194.24,363.325 197.886,363.051 200.488,363.101Z"/>
        </g>
        <g transform="matrix(1,0,0,1,473,857)">
            <path d="M196.866,336.945C197.178,336.789 197.188,336.267 197.5,336.111C197.885,335.919 198.366,336.086 198.785,335.986C199.305,335.862 200.642,334.608 202.489,334.359C216.202,332.511 217.818,354.878 204.531,359.599C188.508,365.293 188.519,344.733 196.866,336.945Z" style="fill:rgb(172,172,172);"/>
        </g>
        <g transform="matrix(1,0,0,1,473,857)">
            <path d="M200.194,346.92C199.27,346.079 196.157,344.145 197.615,340.554C200.801,332.702 214.255,343.387 206.321,352.348C203.115,355.97 196.884,354.443 197.874,352.662C198.033,352.376 198.272,352.555 200.118,349.248L200.194,346.92Z" style="fill:rgb(78,78,78);"/>
        </g>
    </g>
</svg>
