<?xml version="1.0" encoding="UTF-8" standalone="no"?>
<!DOCTYPE svg PUBLIC "-//W3C//DTD SVG 1.1//EN" "http://www.w3.org/Graphics/SVG/1.1/DTD/svg11.dtd">
<svg width="100%" height="100%" viewBox="0 0 84 253" version="1.1" xmlns="http://www.w3.org/2000/svg" xmlns:xlink="http://www.w3.org/1999/xlink" xml:space="preserve" xmlns:serif="http://www.serif.com/" style="fill-rule:evenodd;clip-rule:evenodd;stroke-linejoin:round;stroke-miterlimit:2;">
    <g transform="matrix(1,0,0,1,-495.976963,-1320.202034)">
        <g transform="matrix(1,0,0,1,455,1146)">
            <path d="M40.977,292.51C41.327,290.37 41.607,288.662 51.99,267.738C65.834,239.84 65.555,236.095 73.409,233.26C79.033,231.231 78.1,229.984 80.864,224.685C82.222,222.081 82.155,222.084 83.45,219.475C85.325,215.697 82.681,216.188 78.706,212.296C76.694,210.327 75.549,206.259 73.979,209.747C67.768,223.549 52.573,220.051 49.79,219.016C47.02,217.986 53.125,214.697 54.319,210.441C55.475,206.322 46.075,179.894 63.394,175.143C73.437,172.388 78.852,179.469 81.697,177.93C100.09,167.978 118.902,180.189 119.024,188.503C119.105,194.072 119.548,194.02 119.518,194.501C119.218,199.414 116.97,199.93 120.971,206.196C123.211,209.703 120.691,209.969 119.786,210.834C118.328,212.228 120.15,215.517 116.493,214.856C116.349,214.83 115.049,214.595 114.655,214.793C114.428,214.907 112.8,216.193 116.639,217.276C118.593,217.827 117.015,219.793 117.062,221.546C117.244,228.324 110.11,226.008 106.51,226.575C103.384,227.067 101.061,234.842 100.975,235.569C100.416,240.295 116.543,264.95 120.407,269.577C131.515,282.879 115.047,290.433 112.405,292.395C109.559,294.508 120.437,335.236 111.838,362.604C108.822,372.202 113.854,377.973 110.181,406.457C107.985,423.487 108.377,426.227 106.515,426.589C104.772,426.928 82.578,426.651 80.497,426.625C76.196,426.571 77.917,424.179 73.737,402.449C70.544,385.847 72.828,384.951 68.848,380.218C60.988,370.872 56.333,352.56 62.065,340.308C63.688,336.84 62.802,336.508 60.15,332.746C46.872,313.912 41.72,297.936 40.977,292.51ZM110.147,349.496C110.097,348.84 110.171,348.178 110.12,347.521C109.093,334.149 92.166,333.487 88.882,346.599C83.691,367.329 109.201,369.458 110.147,349.496ZM76.081,315.523C76.013,314.713 75.553,309.305 74.693,305.457C70.957,288.743 70.857,288.028 69.424,288.2C68.851,288.269 64.147,295.396 63.823,296.583C63.429,298.03 65.187,309.592 67.364,317.536C69.773,326.33 70.615,327.502 72.128,326.09C77.447,321.129 76.08,316.128 76.081,315.523Z"/>
        </g>
        <g transform="matrix(1,0,0,1,455,1146)">
            <path d="M101.729,352.607C101.462,352.961 99.025,356.191 96.759,355.059C95.279,354.319 97.381,351.825 97.159,350.56C96.78,348.391 95.902,347.985 97.666,346.727C99.576,345.366 101.291,347.267 101.501,347.499C102.713,348.842 101.833,352.212 101.729,352.607Z"/>
        </g>
    </g>
</svg>
