<?xml version="1.0" encoding="UTF-8" standalone="no"?>
<!DOCTYPE svg PUBLIC "-//W3C//DTD SVG 1.1//EN" "http://www.w3.org/Graphics/SVG/1.1/DTD/svg11.dtd">
<svg width="100%" height="100%" viewBox="0 0 87 253" version="1.1" xmlns="http://www.w3.org/2000/svg" xmlns:xlink="http://www.w3.org/1999/xlink" xml:space="preserve" xmlns:serif="http://www.serif.com/" style="fill-rule:evenodd;clip-rule:evenodd;stroke-linejoin:round;stroke-miterlimit:2;">
    <g transform="matrix(1,0,0,1,-931.261792,-1033.00106)">
        <g transform="matrix(1,0,0,1,473,857)">
            <path d="M491.879,209.931C491.686,210.325 488.276,220.826 476.534,221.857C474.37,222.047 463.178,221.998 467.522,217.521C474.334,210.501 471.251,209.213 470.178,199.54C467.408,174.58 485.192,173.199 495.703,179.127C499.219,181.11 502.253,176.502 509.457,176.079C527.315,175.033 535.894,184.732 536.166,189.524C536.204,190.181 536.137,190.84 536.151,191.498C536.186,193.161 537.294,194.992 536.55,197.514C534.273,205.234 537.692,204.872 538.941,209.37C539.785,212.415 536.351,211.373 536.248,214.506C536.1,218.998 532.279,215.296 531.347,216.351C529.536,218.406 535.255,217.951 534.679,220.554C534.61,220.869 534.362,221.123 534.278,221.434C533.789,223.256 536.864,228.177 526.5,228.209C523.137,228.22 522.427,227.803 520.067,232.289C517.134,237.866 517.565,238.579 523.848,249.277C533.466,265.65 553.948,273.793 537.607,289.613C532.656,294.405 534.985,296.8 539.488,308.505C549.287,333.975 544.132,356.328 541.257,362.39C532.968,379.869 529.46,378.833 529.111,391.483C528.623,409.099 527.354,408.955 525.775,426.537C525.606,428.423 524.102,428.35 523.494,428.357C521.342,428.38 498.149,428.633 496.592,428.199C495.577,427.916 495.215,427.713 492.201,410.551C487.982,386.528 489.559,385.892 486.668,382.363C477.086,370.668 473.775,352.823 480.237,340.373C481.484,337.97 477.668,335.672 473.773,329.309C463.68,312.825 457.243,296.603 458.395,292.473C459.439,288.726 474.565,259.162 480.608,245.549C486.426,232.441 492.982,236.403 495.093,232.323C501.889,219.195 501.986,218.779 501.065,217.94C500.683,217.594 500.344,218.083 495.914,214.078C494.796,213.067 493.918,211.52 493.778,211.274C493.129,210.131 493.168,209.935 491.879,209.931ZM503.106,362.773C503.545,363.171 502.534,362.154 503.106,362.773C504.076,363.824 512.472,372.756 522.415,369.245C544.784,361.347 542.587,334.786 535.407,327.596C517.649,309.813 492.397,340.055 503.106,362.773ZM492.973,312.432C491.95,306.702 492.049,306.735 491.289,303.547C488.495,291.822 488.054,289.088 486.554,289.59C486.433,289.631 481.621,296.778 481.35,297.43C480.247,300.076 483.152,316.201 486.761,326.402C488.084,330.142 489.362,327.898 490.61,326.609C494.762,322.323 493.721,319.597 492.973,312.432Z"/>
        </g>
        <g transform="matrix(1,0,0,1,473,857)">
            <path d="M530.5,326.256C532.444,327.948 533.332,329.342 533.973,329.5C534.15,329.544 533.943,329.689 535.073,331.5C535.429,332.071 537.455,335.321 537.737,339.475C538.254,347.091 536.988,350.5 536.988,350.5C536.83,351.96 536.244,351.752 536.015,353.167C535.54,356.1 534.721,355.696 533.138,358.24C529.172,364.614 518.439,369.734 512.376,366.816C507.078,364.266 507.332,363.871 506.988,363.5C506.263,362.721 503.491,358.102 503.93,358.5C504.051,358.61 503.466,358.442 503.457,356.5C503.435,351.812 502.158,348.488 504.949,340.704C506.927,335.183 507.161,335.294 510.871,330.751C516.836,323.446 525.408,324.764 525.5,324.789C526.942,325.19 529.802,325.648 530.5,326.256Z" style="fill:rgb(172,172,172);"/>
        </g>
        <g transform="matrix(1,0,0,1,473,857)">
            <path d="M507.499,359.503C505.681,358.388 504.786,357.778 506.554,356.582C507.58,355.888 507.834,356.05 509.022,353.245C510.513,349.365 511.352,349.706 514.561,350.144C517.01,350.224 517,350.335 517.212,350.32C518.558,348.476 518.576,348.569 520.159,347.005C520.861,346.219 520.813,346.245 521.502,345.502C523.154,343.722 521.759,343.58 520.373,341.618C519.951,340.882 514.405,334.007 521.176,329.047C525.325,326.008 528.394,327.717 529.289,327.95C530.724,328.889 530.698,328.843 532.034,329.913C535.244,334.813 534.084,335.259 532.652,342.521L533.179,343.689C534.146,345.476 534.196,345.427 534.453,347.495C534.23,359.433 520.463,363.265 517.641,362.109C513.748,360.515 516.278,356.85 516.539,353.516C516.059,353.228 515.98,352.485 515.5,352.197C514.783,351.767 513.968,356.742 513.828,358.767C513.578,362.372 511.023,363.267 508.731,361.39C507.795,360.394 507.786,360.412 507.72,360.314C507.477,359.955 507.76,359.89 507.499,359.503Z" style="fill:rgb(78,78,78);"/>
        </g>
    </g>
</svg>
