<?xml version="1.0" encoding="UTF-8" standalone="no"?>
<!DOCTYPE svg PUBLIC "-//W3C//DTD SVG 1.1//EN" "http://www.w3.org/Graphics/SVG/1.1/DTD/svg11.dtd">
<svg width="100%" height="100%" viewBox="0 0 108 253" version="1.1" xmlns="http://www.w3.org/2000/svg" xmlns:xlink="http://www.w3.org/1999/xlink" xml:space="preserve" xmlns:serif="http://www.serif.com/" style="fill-rule:evenodd;clip-rule:evenodd;stroke-linejoin:round;stroke-miterlimit:2;">
    <g transform="matrix(1,0,0,1,-1348.57953,-1033.056526)">
        <g transform="matrix(1,0,0,1,473,857)">
            <path d="M930.513,176.057C932.405,176.162 946.639,176.957 952.129,185.718C953.946,188.616 954.008,196.824 953.803,197.581C951.528,205.988 955.285,205.497 956.358,209.548C957.153,212.552 953.579,211.388 953.541,214.5C953.487,218.991 949.585,214.966 948.537,216.525C947.268,218.411 952.328,218.331 952.059,220.391C951.901,221.595 951.298,221.49 951.611,223.48C952.644,230.032 941.324,227.271 939.678,228.714C938.463,229.779 934.846,236.15 935.734,238.414C940.937,251.665 955.021,261.466 957.16,262.954C961.447,265.937 970.758,270.362 966.059,280.304C962.784,287.233 955.128,289.288 958.678,292.279C976.721,307.48 983.921,317.801 983.07,339.473C982.912,343.493 978.274,369.023 948.672,383.876C945.308,385.564 947.322,386.827 945.181,406.457C943.843,418.731 943.295,424.866 943.152,426.469C942.943,428.806 941.778,428.373 921.5,428.373C916.105,428.373 913.611,429.429 912.713,425.454C909.619,411.761 906.858,391.476 906.453,388.505C905.53,381.721 903.611,382.561 900.208,376.652C895.952,369.262 891.66,353.411 897.218,342.366C898.983,338.859 897.457,338.755 893.756,333.334C884.013,319.059 884.697,318.682 877.732,302.395C874.085,293.868 874.963,293.235 881.209,280.361C901.066,239.428 900.39,238.176 906.529,235.565C910.968,233.677 911.714,234.127 913.02,231.268C918.493,219.291 919.543,218.892 918.181,217.81C917.687,217.417 916.493,216.944 914.156,214.883C910.485,211.647 910.178,208.478 908.779,210.69C908.279,211.482 905.83,220.105 894.539,221.747C891.373,222.207 880.577,221.894 884.662,217.652C890.815,211.264 889.064,210.212 887.797,201.456C887.201,197.339 884.774,185.282 893.705,178.817C897.258,176.245 905.18,174.405 912.777,179.025C916.009,180.991 916.129,179.263 920.505,177.512C923.902,176.152 929.704,176.068 930.513,176.057ZM968.363,362.38C971.477,358.094 971.475,358.163 972.037,357.232C981.86,340.934 977.515,326.042 976.75,323.421C971.277,304.659 951.936,301.892 942.584,303.847C912.993,310.032 916.02,360.833 919.753,369.388C926.661,385.218 951.986,380.903 968.363,362.38ZM900.092,311.577C903.669,329.242 905.599,329.725 906.598,328.657C912.77,322.063 912.136,320.467 908.727,302.459C908.541,301.476 905.564,289.527 905.514,289.487C903.918,288.212 902.877,291.488 900.392,294.409C897.762,297.503 897.486,298.129 900.092,311.577Z"/>
        </g>
        <g transform="matrix(1,0,0,1,473,857)">
            <path d="M920.248,345.486C920.589,342.092 921.362,329.606 925.79,320.624C926.69,318.798 932.806,306.395 946.53,305.865C954.162,305.571 959.271,307.966 959.628,308.085C976.961,313.848 981.402,339.403 968.142,358.252C957.249,373.737 937.982,379.058 929.438,375.647C918.655,371.341 919.909,355.267 920.248,345.486Z" style="fill:rgb(172,172,172);"/>
        </g>
        <g transform="matrix(1,0,0,1,473,857)">
            <path d="M950.522,314.364L951.512,314.531C964.83,309.521 977.579,330.596 967.912,349.693C965.072,355.305 964.802,355.182 959.593,358.698L957.669,359.751C952.115,363.135 953.381,364.257 952.8,366.618C952.647,367.242 950.354,369.873 948.466,369.799C946.383,369.717 946.365,369.423 944.394,370.262C926.929,377.697 918.639,356.224 930.133,349.065L930.055,347.622C929.502,339.925 934.831,343.42 938.237,340.261C941.315,337.406 950.35,335.023 952.702,337.131C960.64,344.25 959.034,353.517 962.048,351.021C962.823,350.379 958.488,339.379 955.384,336.632C954.062,335.462 953.667,335.13 954.913,333.856C955.695,333.056 961.964,326.641 961.481,321.503C961.302,319.609 959.713,319.612 959.519,321.503C959.406,322.609 958.912,327.418 952.494,333.492C950.556,335.326 944.238,333.629 940.515,336.524C940.305,336.688 938.218,339.676 935.612,336.416C933.529,333.81 933.841,329.184 933.885,328.541C934.006,326.746 934.267,326.375 935.896,322.583C935.415,321.349 935.446,321.394 934.772,320.313C933.89,318.898 933.704,317.809 939.209,315.024C943.164,313.023 944.291,314.917 945.502,315.504C947.459,313.619 947.941,313.305 950.522,314.364Z" style="fill:rgb(78,78,78);"/>
        </g>
    </g>
</svg>
