<?xml version="1.0" encoding="UTF-8" standalone="no"?>
<!DOCTYPE svg PUBLIC "-//W3C//DTD SVG 1.1//EN" "http://www.w3.org/Graphics/SVG/1.1/DTD/svg11.dtd">
<svg width="100%" height="100%" viewBox="0 0 85 253" version="1.1" xmlns="http://www.w3.org/2000/svg" xmlns:xlink="http://www.w3.org/1999/xlink" xml:space="preserve" xmlns:serif="http://www.serif.com/" style="fill-rule:evenodd;clip-rule:evenodd;stroke-linejoin:round;stroke-miterlimit:2;">
    <g transform="matrix(1,0,0,1,-826.996605,-1033.01767)">
        <g transform="matrix(1,0,0,1,473,857)">
            <path d="M410.519,176.066C425.197,177.317 431.698,185.344 431.904,189.456C432.136,194.064 432.963,194.096 431.818,198.584C429.642,207.118 437.062,208.729 434.372,211.389C433.866,211.889 433.192,212.194 432.668,212.676C432.112,213.186 432.059,216.758 430.548,216.669C429.849,216.628 429.189,216.311 428.493,216.236C426.854,216.059 425.957,217.701 428.467,218.561C430.092,219.118 430.941,218.809 430.532,220.51C430.058,222.486 430.142,222.468 430.064,224.481C429.865,229.602 419.109,227.396 417.859,228.868C416.183,230.842 413.495,236.416 413.88,238.436C415.511,246.989 435.641,270.162 437.805,276.398C441.011,285.637 427.22,292.462 427.483,295.5C428.468,306.868 440.428,334.507 429.029,365.322C426.404,372.42 427.923,375.377 425.763,387.55C425.598,388.478 421.668,427.074 421.391,427.442C420.677,428.393 420.399,428.25 395.5,428.247C391.772,428.246 391.014,428.223 390.305,424.536C386.271,403.547 383.917,384.454 383.321,383.626C381.456,381.039 371.599,372.272 372.71,350.511C373.16,341.706 378.578,341.117 374.135,335.808C365.131,325.051 352.661,298.674 354.113,292.403C354.251,291.807 376.834,242.87 380.638,238.623C385.724,232.945 388.868,236.327 391.311,231.41C397.296,219.361 397.578,218.876 396.356,217.667C395.745,217.063 394.542,216.89 391.826,214.174C388.962,211.31 388.591,208.448 387.126,211.205C386.17,213.002 379.318,225.892 363.659,221.022C358.921,219.549 367.631,215.475 367.338,210.508C366.852,202.259 359.707,180.044 378.466,176.3C385.467,174.902 392.102,180.446 394.528,179.562C396.882,178.705 399.591,175.597 410.519,176.066ZM388.906,315.467C387.452,305.936 387.703,305.918 385.223,296.572C383.951,291.78 383.604,287.254 381.13,291.188C377.334,297.224 377.149,297.1 376.884,297.659C375.868,299.809 379.218,318.148 382.789,327.346C383.537,329.272 385.253,327.549 385.4,327.401C389.952,322.833 389.258,319.691 388.906,315.467ZM406.528,367.122C411.597,367.099 419.309,367.62 427.108,354.257C432.822,344.467 431.005,324.621 413.518,323.24C403.019,322.411 396.925,332.55 395.408,337.469C386.419,366.605 405.871,367.021 406.528,367.122Z"/>
        </g>
        <g transform="matrix(1,0,0,1,473,857)">
            <path d="M407.488,364.32C407.47,364.324 406.696,365.028 405.5,364.776C402.104,364.061 402.28,363.715 399.868,362.101C393.882,358.096 393.336,336.079 405.664,327.745C409.5,325.151 415.934,325.381 420.274,327.878C435.695,336.748 424.127,366.587 407.488,364.32Z" style="fill:rgb(172,172,172);"/>
        </g>
        <g transform="matrix(1,0,0,1,473,857)">
            <path d="M405.654,354.779C403.91,356.368 402.542,358.019 400.468,357.607C399.486,357.411 398.072,355.927 400.357,355.149C402.819,354.31 402.566,353.92 403.869,351.691C405.217,349.384 406.355,349.955 407.48,349.957L409.102,349.369L409.177,348.412C408.851,347.971 409.3,347.594 407.638,346.328C405.217,344.485 408.507,341.645 408.289,339.523C408.281,339.443 406.213,332.751 411.536,330.584C414.194,329.503 419.946,330.128 420.036,336.51C420.057,338.046 419.995,338.007 419.954,339.525C421.225,340.974 421.162,340.98 422.26,342.58C422.316,342.792 424.861,344.58 419.105,355.286C415.194,362.562 412.743,357.644 410.473,358.459C410.259,358.536 405.656,364.52 403.503,362.496C401.705,360.804 406,359.514 406.29,359.242C406.491,359.055 406.434,359.033 408.226,356.415L405.654,354.779Z" style="fill:rgb(78,78,78);"/>
        </g>
    </g>
</svg>
