<?xml version="1.0" encoding="UTF-8" standalone="no"?>
<!DOCTYPE svg PUBLIC "-//W3C//DTD SVG 1.1//EN" "http://www.w3.org/Graphics/SVG/1.1/DTD/svg11.dtd">
<svg width="100%" height="100%" viewBox="0 0 97 253" version="1.1" xmlns="http://www.w3.org/2000/svg" xmlns:xlink="http://www.w3.org/1999/xlink" xml:space="preserve" xmlns:serif="http://www.serif.com/" style="fill-rule:evenodd;clip-rule:evenodd;stroke-linejoin:round;stroke-miterlimit:2;">
    <g transform="matrix(1,0,0,1,-1139.846458,-1032.871189)">
        <g transform="matrix(1,0,0,1,473,857)">
            <path d="M755.025,277.492C753.178,289.003 743.462,287.608 748.092,294.77C753.883,303.728 766.712,321.531 763.173,349.451C761.436,363.161 751.519,376.796 746.333,381.311C738.12,388.461 738.044,388.641 737.9,390.527C736.522,408.577 736.553,408.547 734.339,426.48C734.314,426.689 734.117,428.279 732.485,428.344C732.394,428.348 706.026,428.4 705.53,428.318C703.434,427.973 703.723,426.059 700.311,408.534C698.545,399.466 697.477,390.134 697.293,388.526C696.493,381.529 694.122,382.554 690.864,376.306C684.376,363.862 685.487,352.534 685.976,348.571C686.658,343.044 690.8,341.192 687.696,337.345C680.966,329.003 664.313,300.013 667.174,291.384C667.5,290.399 676.284,272.272 681.855,260.666C690.956,241.708 691.681,237.546 699.576,234.735C704.495,232.984 703.697,231.909 706.021,227.26C710.209,218.881 710.122,218.449 709.243,217.775C705.219,214.687 704.942,214.948 702.07,210.802C698.827,206.122 700.114,222.544 681.471,221.877C680.89,221.857 673.354,221.587 674.92,218.716C675.815,217.076 680.835,214.935 680.024,208.546C679.138,201.566 672.633,179.782 691.473,176.311C699.355,174.858 704.352,180.802 707.493,179.485C710.976,178.024 719.721,171.974 736.373,179.78C742.98,182.878 744.125,187.611 744.348,188.531C744.384,188.681 745.152,195.882 745.113,196.462C744.954,198.85 742.468,201.458 745.625,206.422C747.616,209.552 748.563,210.402 745.482,212.478C743.877,213.559 745.845,217.058 742.502,216.547C742.264,216.511 737.131,215.727 739.905,218.053C740.705,218.723 743.71,218.624 743.24,220.425C743.135,220.827 742.834,221.158 742.72,221.558C742.191,223.411 745.324,228.098 735.499,228.159C733.86,228.169 730.824,226.458 727.739,233.599C725.968,237.698 726.022,239.753 734.075,250.813C745.516,266.527 754.17,264.38 755.025,277.492ZM690.06,305.548C690.835,311.368 694.782,328.265 696.485,328.536C698.076,328.79 701.573,324.627 701.896,322.576C702.103,321.263 703.832,320.993 697.778,294.441C697.514,293.281 697.031,289.42 695.502,289.517C694.645,289.571 689.236,296.929 689.268,299.507C689.272,299.796 689.994,305.065 690.06,305.548ZM735.5,314.931C705.137,316.697 704.529,357.101 711.671,367.381C720.777,380.488 746.863,376.632 755.165,360.333C765.446,340.15 759.552,316.429 735.5,314.931Z"/>
        </g>
        <g transform="matrix(1,0,0,1,473,857)">
            <path d="M738.268,371.051C737.495,371.481 737.717,371.912 736.5,372.034C734.998,372.185 734.265,372.738 732.5,372.872C703.702,375.065 710.434,343.504 712.69,336.566C722.715,305.722 760.198,315.128 757.294,344.501C755.104,366.65 739.708,370.463 738.268,371.051Z" style="fill:rgb(172,172,172);"/>
        </g>
        <g transform="matrix(1,0,0,1,473,857)">
            <path d="M725.215,337.491C724.865,332.091 722.743,329.709 725.599,325.564C732.524,315.514 747.584,323.015 743.375,333.454C741.301,338.596 742.511,339.215 746.365,340.866C753.906,344.097 748.343,362.595 736.335,369.167C729.342,372.994 724.907,368.398 724.229,367.696C722.596,365.689 722.613,365.696 722.466,365.528C722.026,365.026 721.956,365.152 721.499,364.631C713.133,362.891 716.181,358.659 717.259,357.257C718.643,352.937 716.497,352.097 717.322,348.462C717.417,348.042 718.088,345.088 721.499,345.058C723.81,345.038 723.811,346.117 723.862,346.157L725.487,345.495L725.504,344.501C724.432,340.893 723.496,340.732 725.215,337.491Z" style="fill:rgb(78,78,78);"/>
        </g>
    </g>
</svg>
