<?xml version="1.0" encoding="UTF-8" standalone="no"?>
<!DOCTYPE svg PUBLIC "-//W3C//DTD SVG 1.1//EN" "http://www.w3.org/Graphics/SVG/1.1/DTD/svg11.dtd">
<svg width="100%" height="100%" viewBox="0 0 103 253" version="1.1" xmlns="http://www.w3.org/2000/svg" xmlns:xlink="http://www.w3.org/1999/xlink" xml:space="preserve" xmlns:serif="http://www.serif.com/" style="fill-rule:evenodd;clip-rule:evenodd;stroke-linejoin:round;stroke-miterlimit:2;">
    <g transform="matrix(1,0,0,1,-1225.888989,-1321.981273)">
        <g transform="matrix(1,0,0,1,455,1146)">
            <path d="M804.819,209.998C804.047,211.341 798.414,225.258 781.57,221.205C774.898,219.6 784.616,216.075 784.338,210.508C783.894,201.603 776.581,180.326 795.466,176.3C802.118,174.882 809.184,180.416 811.528,179.562C813.72,178.764 819.393,173.646 834.559,177.258C839.088,178.337 848.57,183.464 848.904,189.456C849.162,194.072 849.961,194.104 848.818,198.584C846.67,207.009 854.022,208.768 851.372,211.389C851.233,211.526 849.319,212.258 848.963,214.522C848.228,219.191 844.372,214.736 843.98,216.7C843.375,219.735 848.367,217.494 847.532,220.51C847.422,220.908 847.119,221.231 846.992,221.624C846.478,223.219 849.551,228.376 838.5,228.258C835.086,228.222 834.639,228.368 832.21,233.368C831.895,234.015 827.761,236.342 837.999,250.104C849.228,265.2 862.198,265.63 860.898,277.559C860.074,285.115 850.401,288.812 852.715,292.362C853.239,293.165 853.41,293.018 860.35,301.615C879.928,325.864 879.145,356.987 844.364,385.325C840.4,388.554 842.045,389.424 841.608,394.508C841.378,397.174 838.847,426.589 837.752,427.73C837.122,428.386 836.961,428.362 812.499,428.34C807.932,428.336 808.311,426.947 807.37,422.529C804.806,410.498 801.134,384.664 801.133,384.662C800.307,382.847 789.178,372.719 789.975,351.51C790.259,343.957 795.28,341.255 792.045,336.882C788.307,331.828 786.717,331.945 777.734,313.382C769.453,296.272 770.707,293.152 771.387,291.457C772.77,288.012 789.402,254.085 794.405,243.452C797.514,236.844 801.519,235.474 802.39,235.176C805.894,233.976 806.653,234.748 808.311,231.41C814.296,219.361 814.578,218.876 813.356,217.667C812.745,217.063 811.542,216.89 808.826,214.174C806.731,212.079 807.473,211.326 804.819,209.998ZM795.092,309.577C795.405,311.122 798.673,327.258 800.478,328.532C801.441,329.212 806.189,325.64 806.498,320.5C807.052,311.303 802.094,294.697 801.443,292.517C801.271,291.94 801.209,288.932 799.434,289.357C799.28,289.393 793.918,296.827 793.668,298.529C793.364,300.597 794.923,308.702 795.092,309.577ZM813.857,343.52C813.823,345.939 812.473,356.707 817.335,365.604C827.054,383.387 865.412,375.214 870.072,339.45C872.611,319.968 859.876,312.335 857.753,311.063C843.994,302.816 828.874,313.537 826.84,314.978C815.433,323.067 814.05,341.019 813.857,343.52Z"/>
        </g>
        <g transform="matrix(1,0,0,1,455,1146)">
            <path d="M820.339,349.976C817.746,348.8 817.56,348.184 818.832,345.637C820.206,342.889 822.32,344.757 823.364,345.724C824.178,346.477 824.399,345.749 824.57,345.745C824.759,345.74 824.858,346.235 825.001,346.112C825.409,345.757 825.5,345.15 825.785,344.689C827.87,341.321 827.959,341.392 831.332,339.211C832.539,335.42 831.49,334.016 835.446,333.354C836.922,332.642 836.902,332.662 838.076,331.476C838.123,329.322 838.026,329.369 837.656,327.468C836.724,322.677 841.934,314.726 850.56,316.185C860.476,317.861 858.769,327.357 858.561,328.514C857.806,331.387 857.203,331.361 857.993,334.273L858.651,335.216C865.956,340.927 857.425,359.573 850.553,363.58C841.52,368.847 839.559,366.529 837.54,365.439C827.736,364.567 828.473,362.461 826.393,358.63C826.162,358.459 824.349,357.119 823.569,356.422C821.113,354.228 820.947,354.067 821.304,351.457L820.339,349.976Z"/>
        </g>
    </g>
</svg>
