<?xml version="1.0" encoding="UTF-8" standalone="no"?>
<!DOCTYPE svg PUBLIC "-//W3C//DTD SVG 1.1//EN" "http://www.w3.org/Graphics/SVG/1.1/DTD/svg11.dtd">
<svg width="100%" height="100%" viewBox="0 0 237 194" version="1.1" xmlns="http://www.w3.org/2000/svg" xmlns:xlink="http://www.w3.org/1999/xlink" xml:space="preserve" xmlns:serif="http://www.serif.com/" style="fill-rule:evenodd;clip-rule:evenodd;stroke-linejoin:round;stroke-miterlimit:2;">
    <g transform="matrix(1,0,0,1,-1637.111067,-1703)">
        <g id="fertile" transform="matrix(0.287634,0,0,0.287634,1653.77614,1700.20484)">
            <path d="M555.557,9.718C555.155,11.622 554.831,13.573 554.157,17.435C553.124,25.474 552.698,25.382 552.061,33.468C550.745,51.512 551.574,58.479 551.972,64.436C552.316,68.439 552.766,75.697 555.717,85.445C563.206,117.201 582.059,141.91 588.954,159.305C597.84,176.575 599.241,191.203 604.423,203.527C607.469,210.769 614.843,236.129 616.208,239.606C616.462,240.492 620.421,256.903 621.126,260.568C621.797,264.063 621.815,264.02 622.417,267.515C631.122,314.507 625.162,339.207 626.943,345.378C630.029,356.072 632.757,367.616 633.217,369.561C639.641,398.101 638.644,398.247 642.115,419.534C642.514,423.525 642.514,423.481 642.959,427.431C643.489,432.774 646.789,466.07 645.61,494.503C645.474,497.783 644.406,523.524 642.948,535.604C643.091,535.785 643.001,535.908 642.896,536.028L642.83,536.545C642.198,544.067 641.821,543.973 641.08,551.455C639.209,566.568 638.932,566.48 636.595,581.513C636.446,582.471 636.245,582.426 634.18,593.398C633.177,596.983 633.082,599.629 630.861,608.564C628.464,622.001 623.271,638.124 620.478,649.495C620.375,649.912 620.273,649.871 618.802,654.598C618.105,656.838 618.815,657.85 616.5,657.904C615.17,657.934 365.57,657.916 365.5,657.914C363.187,657.842 362.582,657.824 362.567,655.498C362.46,639.216 363.155,639.241 362.564,632.497C362.073,626.885 365.11,558.411 361.171,546.606C360.597,544.886 360.48,544.973 359.611,543.406C358.574,542.531 358.576,542.578 357.392,541.949C355.484,541.87 355.512,541.857 353.577,541.892C351.685,542.793 351.695,542.804 350.308,544.358C345.607,552.068 348.195,585.421 347.735,636.499C347.558,656.083 348.504,656.751 346.5,657.897C346.494,657.9 104.078,657.899 103.5,657.899C93.123,657.908 92.591,658.063 92.248,656.635C90.9,651.036 90.316,651.207 89.312,645.549C87.358,640.07 81.534,619.282 79.322,606.536C68.969,565.793 65.066,509.324 64.959,499.501C64.648,470.95 63.791,423.304 79.519,360.505C80.458,356.49 81.377,353.152 81.553,352.516C82.703,348.851 82.73,348.887 83.112,347.392C85.638,337.508 82.121,331.116 83.856,301.523C85.734,279.393 85.982,279.432 88.014,268.397C92.768,242.241 94.385,241.948 95.452,236.489C96.161,232.859 104.377,207.65 107.024,201.292C108.347,196.733 108.82,196.916 110.014,192.349C112.155,184.16 112.361,184.222 112.518,183.504C114.409,174.834 117.359,169.381 119.215,164.398C119.633,163.329 121.505,158.543 125.218,151.376C128.735,145.266 128.606,144.962 130.148,142.254C139.688,125.507 138.953,125.119 139.841,123.7C143.464,117.909 149.951,101.548 150.732,99.579C155.904,84.222 156.904,78.985 158.818,64.542C159.065,60.961 159.089,59.894 159.099,59.489C159.726,31.865 156.887,20.922 156.521,18.497L156.043,15.592C155.456,12.842 155.096,11.115 154.824,9.718L555.557,9.718Z" style="fill:rgb(254,212,213);"/>
            <g transform="matrix(0.954289,0,0,0.954289,-151.20699,-91.914852)">
                <path d="M885.351,106.501C893.195,132.359 908.643,166.705 920.887,247.441C944.177,401.015 936.521,500.163 940.928,550.455C944.799,594.634 963.984,642.495 956.686,687.53C950.814,723.768 953.036,741.776 924.867,781.759C909.904,802.999 905.531,816.557 896.437,810.586C892.417,807.946 889.27,785.007 889.914,777.54C892.355,749.214 914.519,754.015 909.089,720.567C902.417,679.468 901.226,663.314 893.446,664.075C886.314,664.772 888.948,679.984 888.721,688.507C887.963,716.997 875.632,729.798 870.56,730.801C859.689,732.951 860.381,716.909 859.579,710.491C847.553,614.186 864.851,591.714 869.037,555.444C877.201,484.701 858.55,446.034 839.99,380.362C781.704,174.13 781.766,174.157 779.965,165.405C777.56,153.717 774.884,131.025 772.451,106.501L885.351,106.501Z" style="fill:rgb(254,212,213);"/>
            </g>
            <g transform="matrix(0.954289,0,0,0.954289,-149.667026,-92.720788)">
                <path d="M281.824,107.345C278.684,141.366 275.805,162.603 269.979,183.636C267.585,192.278 247.026,266.5 239.489,291.497C235.735,303.95 214.595,378.881 212.449,386.485C193.149,454.893 179.723,480.298 184.395,545.509C188.226,598.979 208.417,601.478 193.342,723.476C192.415,730.978 183.924,733.37 178.999,728.011C159.701,707.017 167.952,674.818 165.288,668.586C161.781,660.382 154.334,663.12 151.421,681.487C143.235,733.094 142.68,733.642 146.907,743.315C149.924,750.218 168.259,764.428 163.891,788.563C161.011,804.477 161.218,811.172 154.547,811.899C148.764,812.53 145.941,806.402 145.847,806.263C114.344,759.741 107.069,749.095 101.916,717.439C95.498,678.014 96.039,663.222 96.213,658.487C97.683,618.304 106.617,608.282 113.035,553.454C117.613,514.343 108.917,320.913 151.311,161.449C159.771,129.628 165.131,120.619 169.06,107.345L281.824,107.345Z" style="fill:rgb(254,212,213);"/>
            </g>
            <g transform="matrix(0.898336,0,0,0.898336,-1103.680533,-2194.542055)">
                <g transform="matrix(0.423224,0,0,0.423224,1184.731761,2539.042691)">
                    <path d="M1596.61,599.456C1562.27,635.069 1563.83,690.331 1499.28,706.564C1434.74,722.798 1373.66,701.163 1362.87,658.243C1352.08,615.322 1406.32,568.424 1472.73,564.116C1539.05,559.815 1627.32,567.596 1596.61,599.456Z" style="fill:rgb(241,171,158);fill-rule:nonzero;"/>
                </g>
                <g transform="matrix(0.423224,0,0,0.423224,1184.731761,2539.042691)">
                    <path d="M715.96,652.8C716.07,656.88 715.63,660.96 714.61,665C703.81,707.92 642.74,729.56 578.2,713.32C545.95,705.21 530.21,687.36 518.24,667.09C506.25,646.78 498.05,624.03 480.87,606.21C450.69,574.91 535.35,566.85 601.21,570.65C602.4,570.72 603.58,570.79 604.75,570.87C647.95,573.67 686,594.5 704.35,620.53L704.36,620.54L715.96,652.8Z" style="fill:rgb(241,171,158);fill-rule:nonzero;"/>
                </g>
                <g transform="matrix(0.423224,0,0,0.423224,1184.731761,2539.042691)">
                    <path d="M1641.28,498.87C1641.28,498.87 1632.83,571.51 1602.42,601.92C1602.42,601.92 1602.42,699.91 1568.63,699.91C1568.63,699.91 1541.61,693.15 1556.81,645.85C1556.81,645.85 1534.85,661.05 1512.89,650.91C1506.33,647.88 1502.54,646.36 1500.45,645.72C1502.52,637.61 1511.83,605.09 1528.09,603.61C1528.09,603.61 1460.52,586.72 1460.52,578.27C1460.52,569.83 1463.89,539.34 1543.29,554.62C1543.29,554.62 1566.38,570.39 1579.9,509.57C1579.9,509.57 1591.16,444.25 1524.71,434.11C1524.71,434.11 1487.55,420.6 1406.46,472.41C1406.46,472.41 1328.75,506.19 1307.35,507.32C1307.35,507.32 1263.42,537.73 1262.3,561.38C1262.3,561.38 1345.64,619.94 1361.41,617.69L1356.9,653.73C1356.9,653.73 1280.32,614.31 1280.32,604.18L1251.04,583.9C1251.04,583.9 1252.16,663.87 1228.51,699.91C1228.51,699.91 1212.74,742.7 1182.34,776.49C1182.34,776.49 1156.43,821.54 1177.83,885.74C1177.83,885.74 1186.56,951.06 1166.29,989.91L1146.01,1060.02C1146.01,1060.02 1124.9,1164.76 1128.28,1186.72C1128.28,1186.72 1125.74,1223.89 1097.02,1208.68L1076.75,1196.86C1076.75,1196.86 1054.79,1188.41 994.82,1196.01C994.82,1196.01 959.34,1223.04 948.36,1209.53C948.36,1209.53 939.91,1195.17 937.38,1144.49C937.38,1144.49 925.55,1036.37 911.19,1015.25C911.19,1015.25 886.7,951.9 887.54,907.13C887.54,907.13 892.61,850.54 902.75,832.8C902.75,832.8 895.14,776.21 881.63,769.45C881.63,769.45 835.17,700.19 836.02,690.05C836.02,690.05 814.06,621.63 815.74,584.47L765.06,623.32C765.06,623.32 731.18,651.15 715.97,652.84L715.96,652.8C715.71,641.76 711.55,630.75 704.36,620.54L704.35,620.53C704.35,620.53 736.34,608.12 749.86,599.67C749.86,599.67 803.07,559.13 808.99,561.66C808.99,561.66 789.56,518.58 772.67,515.2C755.77,511.82 769.29,506.76 702.56,489.02C702.56,489.02 629.07,458.61 627.38,454.39C625.69,450.16 575.86,430.74 560.65,434.11C560.65,434.11 506.59,431.58 498.15,461.99C498.15,461.99 480.41,467.06 493.92,535.48C493.92,535.48 506.01,557.69 519.539,554.62C519.539,554.62 584.09,535.26 601.21,570.65C601.6,571.47 601.98,572.32 602.32,573.2C602.32,573.2 595.56,593.48 538.13,600.23C538.13,600.23 570.22,628.95 560.93,655.98C560.93,655.98 518.57,655.98 513.169,645.1C514.27,647.97 517.469,656.99 518.24,667.09C519.2,679.67 516.37,693.91 500.96,699.91C500.96,699.91 467.17,681.32 467.17,603.61C467.17,603.61 416.49,525.9 430.01,468.46C430.01,468.46 467.17,355.28 587.12,378.93C587.12,378.93 653,397.51 676.65,416.09C676.65,416.09 757.74,463.4 837.14,429.61C837.14,429.61 935.13,346.83 1066.9,358.66C1066.9,358.66 1166.57,380.62 1186.84,400.89C1186.84,400.89 1274.69,460.02 1337.19,438.06C1337.19,438.06 1430.11,404.27 1447,389.06C1447,389.06 1523.02,365.41 1560.19,384C1560.19,384 1642.97,422.85 1641.28,498.87Z" style="fill:rgb(252,128,128);fill-rule:nonzero;"/>
                </g>
                <g transform="matrix(0.423224,0,0,0.423224,1184.731761,2539.042691)">
                    <path d="M777.734,478.882C777.734,478.882 906.125,470.435 938.223,478.882C938.223,478.882 1030.29,512.669 1126.59,482.26C1126.59,482.26 1199.68,467.361 1285.39,477.192L1221.19,508.445C1221.19,508.445 1162.06,554.903 1160.37,568.418C1160.37,568.418 1133.34,638.526 1136.72,657.109C1136.72,657.109 1121.52,714.547 1082.66,750.868C1082.66,750.868 1054.79,788.879 1057.32,803.238C1057.32,803.238 1053.1,905.445 1059.01,913.891C1059.01,913.891 1072.35,947.389 1122.36,906.289C1122.36,906.289 1137.57,923.183 1123.21,953.591C1123.21,953.591 1096.18,1019.48 1092.8,1062.55C1092.8,1062.55 1085.2,1147.02 1088.58,1160.54C1088.58,1160.54 1084.35,1194.32 1076.75,1196.86C1076.75,1196.86 1039.3,1188.13 994.816,1196.01C994.816,1196.01 981.865,1184.75 981.301,1141.95C981.301,1141.95 981.865,1077.76 977.923,1061.43C977.923,1061.43 968.35,997.796 959.903,987.66L941.32,948.805L943.009,899.813C943.009,899.813 966.66,926.843 994.816,924.028C994.816,924.028 1016.78,927.969 1014.53,887.988C1012.27,848.006 1013.4,803.238 1013.4,803.238C1013.4,803.238 1007.49,760.16 983.836,744.956L957.932,714.078C957.932,714.078 928.65,654.387 933.155,640.872C933.155,640.872 920.766,572.172 899.368,554.152C899.368,554.152 853.192,499.342 777.734,478.882Z" style="fill:rgb(198,55,54);fill-rule:nonzero;"/>
                </g>
            </g>
            <g transform="matrix(-0.500557,-1.720068,2.116556,-0.61594,145.125769,299.889624)">
                <path d="M73.438,157.426C70.163,159.95 68.187,159.732 68.236,161.485C68.285,163.263 70.261,168.367 64.788,171.978C61.569,174.101 52.907,173.178 54.198,182.512C54.713,186.235 55.293,188.944 53.491,188.527C53.089,188.434 47.94,179.706 54.624,173.63C59.554,169.148 66.601,171.331 63.495,162.502C62.056,158.415 54.094,159.613 52.86,148.482C52.101,141.635 62.544,122.02 72.177,133.743C76.782,139.347 77.335,146.33 77.428,147.505C77.892,153.356 74.88,156.083 73.438,157.426Z" style="fill:rgb(240,112,151);fill-opacity:0.98;stroke:rgb(254,212,213);stroke-width:3.61px;"/>
            </g>
            <g transform="matrix(0.152822,0,0,0.152822,226.408544,55.315712)">
                <path d="M596.56,81.42C599.181,83.345 599.063,83.288 601.543,85.451C607.38,91.329 618.67,100.229 625.889,125.368C626.962,128.951 626.878,128.858 627.569,132.49C635.738,171.815 622.636,212.989 619.248,227.416C619.167,227.76 619.137,227.724 617.75,231.572C591.27,314.199 560.19,355.156 555.318,368.7C547.673,365.034 528.012,361.901 523.435,360.904C522.298,360.656 494.654,358.854 485.402,362.055C483.619,362.672 483.171,360.563 462.356,367.071C458.891,368.155 459.081,368.453 455.536,369.538C445.313,348.985 301.31,106.768 449.369,64.042C452.374,63.175 508.406,45.243 573.577,68.214C573.598,68.197 573.62,68.18 573.644,68.165C573.792,68.071 573.961,68.261 574.127,68.408L574.483,68.535C576.029,69.303 582.628,72.293 587.645,75.267L588.761,76.126C592.886,78.542 592.847,78.42 596.56,81.42Z" style="fill:rgb(240,94,152);"/>
                <path d="M688.37,180.34C696.727,174.555 696.446,174.251 705.345,169.256C720.305,161.602 727.434,157.734 749.51,156.932C753.885,157.138 778.537,158.301 801.237,174.865C803.281,176.292 813.309,183.292 824.929,195.098C854.384,226.276 863.859,247.999 868.757,257.387C872.564,265.783 872.318,265.813 875.257,274.572C881.037,295.164 890.64,340.214 831.762,381.87L827.162,385.01C814.403,394.139 793.011,403.866 787.48,406.455C771.092,412.549 764.501,416.946 731.659,425.957C728.572,426.886 709.842,432.522 692.626,435.989L684.562,437.819C638.139,446.505 638.021,446.014 634.178,447.452C629.873,441.711 632.825,440.046 619.179,419.72C616.2,415.278 616.216,415.351 612.849,411.274C608.962,406.613 608.99,406.687 604.782,402.216C604.433,401.845 604.463,401.919 600.28,397.724L596.668,394.318C594.525,392.484 578.34,378.636 567.478,374.545C565.584,373.832 564.556,372.685 564.488,372.642C570.05,367.208 590.203,303.404 635.556,238.544C648.746,218.935 662.766,204.056 663.404,203.416C666.453,200.308 666.603,200.632 669.419,197.421C677.391,189.023 683.837,184.118 685.194,183.085L688.37,180.34Z" style="fill:rgb(240,94,152);"/>
                <path d="M145.138,346.712L141.902,340.324C127.264,306.241 138.385,279.163 145.834,262.665C152.791,249.06 159.865,235.651 179.381,213.405C183.724,208.697 183.572,208.732 188.077,204.106C189.294,202.796 197.034,194.369 210.789,183.92C216.636,179.705 220.339,177.536 221.201,177.031C232.981,170.023 238.25,168.69 240.596,167.782C280.587,155.175 305.592,171.193 322.611,182.328L327.816,186.084C330.886,188.566 330.814,188.492 333.93,191.07C352.054,205.089 375.887,238.302 379.088,242.764C386.348,254.282 387.232,253.716 406.159,287.685C424.389,320.207 422.738,320.969 443.203,367.587C444.438,370.772 444.207,370.85 446.493,373.466L444.627,374.77C431.625,381.388 426.34,386.017 422.438,389.419C415.796,394.234 415.969,394.28 409.98,399.876C409.132,400.725 406.683,403.181 400.375,411.396C393.622,419.375 393.875,419.502 388.411,428.446C387.728,429.705 384.494,435.665 380.515,444.506C378.639,450.602 376.647,454.315 376.575,454.491C375.587,453.746 375.772,453.535 374.524,453.399C365.231,452.382 327.234,444.002 326.399,443.833C295.09,435.76 295.225,435.591 264.365,425.9C264.05,425.802 264.071,425.818 260.395,424.789C252.106,421.566 232.636,415.347 206.733,401.102L204.708,400.082C200.67,397.668 189.226,392.13 170.853,377.01C169.44,375.62 166.531,374.188 155.16,360.727C154.794,360.306 154.919,360.368 150.763,355.31C147.23,349.648 145.615,347.381 145.138,346.712Z" style="fill:rgb(240,94,152);"/>
                <path d="M381.95,550.274C393.507,574.069 395.097,573.319 395.456,575.586L396.247,575.841C382.786,586.738 382.967,586.905 381.77,587.814C379.088,589.8 379.093,589.771 378.874,589.959C356.6,609.082 338.239,621.422 334.746,623.908C169.601,741.488 124.432,657.521 111.34,635.575C107.8,628.047 107.819,628.121 104.349,620.569C100.765,611.716 101.376,611.607 98.029,602.659C94.915,591.424 95.055,591.402 94.771,590.43C93.625,585.857 93.62,585.89 93.534,585.491C83.271,537.963 89.97,514.216 90.845,508.595C92.398,502.771 93.903,498.255 94.2,497.366C101.438,480.357 103.543,475.378 118.841,461.958C174.812,411.386 322.445,446.15 373.564,463.568L373.798,465.575L373.441,469.49C369.484,487.715 371.361,497.556 371.488,504.5C371.767,519.732 372.981,519.523 375.903,534.395C378.812,542.417 378.477,542.446 381.95,550.274Z" style="fill:rgb(240,94,152);"/>
                <path d="M447.747,877.84C414.356,901.733 377.102,890.242 361.571,886.228C355.965,884.579 356,884.595 355.517,884.447C353.947,883.968 354.11,883.781 352.574,883.312C334.488,875.985 334.571,875.99 317.192,866.987C312.249,864.34 312.366,864.304 307.577,861.385C284.444,847.841 273.456,834.356 272.072,832.901L270.132,830.837C246.038,803.973 248.08,776.998 247.992,771.519C248.86,762.875 248.697,762.977 250.223,754.446C252.579,745.848 252.479,745.933 255.307,737.429C257.287,732.953 270.225,703.702 287.152,685.185L288.876,682.789L289.276,682.318L289.746,681.701C291.622,678.923 291.598,678.932 291.772,678.701C292.649,677.537 292.773,677.747 293.627,676.613L295.91,673.891C303.48,665.717 308.949,660.269 310.111,659.112L316.119,653.072L318.116,651.14L324.131,645.149C328.893,640.669 328.851,640.641 329.271,640.26L330.785,638.835C377.114,597.042 398.284,586.89 401.159,581.669L401.325,582.544L402.706,583.332C406.336,588.241 406.38,588.115 410.277,592.72C416.357,597.798 416.291,597.702 422.508,602.49C430.357,609.395 430.921,608.511 439.536,614.44L442.623,616.298C443.647,616.807 453.013,621.464 455.579,622.319C466.329,625.903 466.399,625.618 467.324,625.954C493.601,633.716 494.154,629.946 510.542,631.662L510.266,632.114L509.867,633.619C509.789,635.07 513.221,704.01 504.15,760.462C502.789,766.961 502.871,766.966 502.749,767.53C499.837,783.21 499.884,783.109 495.802,798.601C493.881,805.009 494.005,804.966 492.068,811.359C487.143,824.851 487.38,824.88 480.924,837.712C478.561,842.332 478.784,842.376 475.936,846.778C470.38,855.794 466.791,859.803 465.869,860.834L464.175,863.247L462.257,865.271C457.367,870.477 457.332,870.288 451.826,874.978L447.747,877.84Z" style="fill:rgb(240,94,152);"/>
                <g transform="matrix(0.622718,-0.782446,0.782446,0.622718,-186.563887,577.27637)">
                    <path d="M447.747,877.84C414.356,901.733 377.102,890.242 361.571,886.228C355.965,884.579 356,884.595 355.517,884.447C353.947,883.968 354.11,883.781 352.574,883.312C334.488,875.985 334.571,875.99 317.192,866.987C312.249,864.34 312.366,864.304 307.577,861.385C284.444,847.841 273.456,834.356 272.072,832.901L270.132,830.837C246.038,803.973 248.08,776.998 247.992,771.519C248.86,762.875 248.697,762.977 250.223,754.446C252.579,745.848 252.479,745.933 255.307,737.429C257.287,732.953 270.225,703.702 287.152,685.185L288.876,682.789L289.276,682.318L289.746,681.701C291.622,678.923 291.598,678.932 291.772,678.701C292.649,677.537 292.773,677.747 293.627,676.613L295.91,673.891C303.48,665.717 308.949,660.269 310.111,659.112L316.119,653.072L318.116,651.14L324.131,645.149C328.893,640.669 328.851,640.641 329.271,640.26L330.785,638.835C377.114,597.042 398.284,586.89 401.159,581.669L401.325,582.544L402.706,583.332C406.336,588.241 456.092,604.518 458.659,605.373C469.408,608.957 472.648,606.15 473.572,606.486C499.85,614.248 493.676,618.937 510.064,620.654C510.064,620.654 513.221,704.01 504.15,760.462C502.789,766.961 502.871,766.966 502.749,767.53C499.837,783.21 499.884,783.109 495.802,798.601C493.881,805.009 494.005,804.966 492.068,811.359C487.143,824.851 487.38,824.88 480.924,837.712C478.561,842.332 478.784,842.376 475.936,846.778C470.38,855.794 466.791,859.803 465.869,860.834L464.175,863.247L462.257,865.271C457.367,870.477 457.332,870.288 451.826,874.978L447.747,877.84Z" style="fill:rgb(240,94,152);"/>
                </g>
                <g transform="matrix(-0.255124,-0.966908,0.966908,-0.255124,169.995482,1105.533178)">
                    <path d="M447.747,877.84C414.356,901.733 377.102,890.242 361.571,886.228C355.965,884.579 356,884.595 355.517,884.447C353.947,883.968 354.11,883.781 352.574,883.312C334.488,875.985 334.571,875.99 317.192,866.987C312.249,864.34 312.366,864.304 307.577,861.385C284.444,847.841 273.456,834.356 272.072,832.901L270.132,830.837C246.038,803.973 248.08,776.998 247.992,771.519C248.86,762.875 248.697,762.977 250.223,754.446C252.579,745.848 252.479,745.933 255.307,737.429C257.287,732.953 270.225,703.702 287.152,685.185L288.876,682.789L289.276,682.318L289.746,681.701C291.622,678.923 291.598,678.932 291.772,678.701C292.649,677.537 292.773,677.747 293.627,676.613L295.91,673.891C303.48,665.717 308.949,660.269 310.111,659.112L316.119,653.072L318.116,651.14L324.131,645.149C328.893,640.669 328.851,640.641 329.271,640.26L330.785,638.835C377.114,597.042 424.894,565.424 427.769,560.203C427.769,560.203 493.555,600.463 509.943,602.179L510.266,632.114L509.867,633.619C509.789,635.07 513.221,704.01 504.15,760.462C502.789,766.961 502.871,766.966 502.749,767.53C499.837,783.21 499.884,783.109 495.802,798.601C493.881,805.009 494.005,804.966 492.068,811.359C487.143,824.851 487.38,824.88 480.924,837.712C478.561,842.332 478.784,842.376 475.936,846.778C470.38,855.794 466.791,859.803 465.869,860.834L464.175,863.247L462.257,865.271C457.367,870.477 457.332,870.288 451.826,874.978L447.747,877.84Z" style="fill:rgb(240,94,152);"/>
                </g>
                <path d="M604.782,402.216C608.99,406.687 608.962,406.613 612.849,411.274C616.216,415.351 616.2,415.278 619.179,419.72C632.825,440.046 629.873,441.711 634.178,447.452C635.448,451.967 635.428,451.899 636.695,456.389C638.298,458.781 640.058,470.688 641.328,476.514C642.561,482.168 643.15,507.593 641.134,516.429C640.495,518.429 640.575,518.329 640.226,520.446C638.422,534.229 631.954,548.763 631.017,551.291C630.316,552.48 625.114,563.215 623.496,565.496C619.735,570.513 619.652,571.917 619.396,572.487C618.69,573.372 618.671,573.221 610.427,583.44C603.657,590.716 603.583,590.516 596.667,597.655C586.442,606.167 586.34,605.886 575.288,613.186C547.488,629.943 519.082,631.313 517.52,631.408C514.027,631.488 514.138,631.469 510.542,631.662C494.154,629.946 493.601,633.716 467.324,625.954C466.399,625.618 466.329,625.903 455.579,622.319C453.013,621.464 443.647,616.807 442.623,616.298L439.536,614.44C430.921,608.511 430.357,609.395 422.508,602.49C416.291,597.702 416.357,597.798 410.277,592.72C406.38,588.115 406.336,588.241 402.706,583.332L401.325,582.544L401.159,581.669C398.014,577.688 398.208,577.58 396.247,575.841L395.456,575.586C395.097,573.319 393.507,574.069 381.95,550.274C378.477,542.446 378.812,542.417 375.903,534.395C372.981,519.523 371.767,519.732 371.488,504.5C371.361,497.556 369.484,487.715 373.441,469.49L373.798,465.575C373.883,465.071 373.635,465.134 373.721,464.617C373.74,464.506 373.721,464.617 374.151,463.282C375.56,459.736 375.797,459.897 376.575,454.491C376.647,454.315 378.639,450.602 380.515,444.506C384.494,435.665 387.728,429.705 388.411,428.446C393.875,419.502 393.622,419.375 400.375,411.396C406.683,403.181 409.132,400.725 409.98,399.876C415.969,394.28 415.796,394.234 422.438,389.419C426.34,386.017 431.625,381.388 444.627,374.77L446.493,373.466C447.246,373.231 452.445,371.611 455.536,369.538C459.081,368.453 458.891,368.155 462.356,367.071C483.171,360.563 483.619,362.672 485.402,362.055C494.654,358.854 522.298,360.656 523.435,360.904C528.012,361.901 547.673,365.034 555.318,368.7C560.28,371.524 560.435,371.022 564.488,372.642C564.556,372.685 565.584,373.832 567.478,374.545C578.34,378.636 594.525,392.484 596.668,394.318L600.28,397.724C604.463,401.919 604.433,401.845 604.782,402.216Z" style="fill:rgb(246,209,52);"/>
            </g>
        </g>
    </g>
</svg>
