<?xml version="1.0" encoding="UTF-8" standalone="no"?><!DOCTYPE svg PUBLIC "-//W3C//DTD SVG 1.1//EN" "http://www.w3.org/Graphics/SVG/1.1/DTD/svg11.dtd"><svg width="100%" height="100%" viewBox="0 0 237 194" version="1.1" xmlns="http://www.w3.org/2000/svg" xmlns:xlink="http://www.w3.org/1999/xlink" xml:space="preserve" xmlns:serif="http://www.serif.com/" style="fill-rule:evenodd;clip-rule:evenodd;stroke-linejoin:round;stroke-miterlimit:2;"><g id="menopause"><path d="M176.462,0c-0.116,0.548 -0.209,1.109 -0.403,2.22c-0.297,2.312 -0.42,2.286 -0.603,4.612c-0.378,5.19 -0.14,7.194 -0.026,8.908c0.099,1.151 0.228,3.239 1.077,6.043c2.154,9.134 7.577,16.241 9.56,21.245c2.556,4.967 2.959,9.175 4.449,12.72c0.876,2.083 2.997,9.378 3.39,10.378c0.073,0.255 1.212,4.975 1.414,6.029c0.193,1.005 0.198,0.993 0.371,1.998c2.504,13.516 0.79,20.621 1.302,22.396c0.888,3.076 1.672,6.396 1.805,6.956c1.848,8.209 1.561,8.251 2.56,14.374c0.115,1.148 0.115,1.135 0.243,2.271c0.152,1.537 1.102,11.114 0.763,19.292c-0.039,0.943 -0.346,8.348 -0.766,11.822c0.041,0.052 0.015,0.088 -0.015,0.122l-0.019,0.149c-0.182,2.164 -0.29,2.137 -0.503,4.289c-0.538,4.347 -0.618,4.322 -1.29,8.646c-0.043,0.276 -0.101,0.263 -0.695,3.419c-0.289,1.031 -0.316,1.792 -0.955,4.362c-0.689,3.865 -2.183,8.502 -2.987,11.773c-0.029,0.12 -0.059,0.108 -0.482,1.468c-0.2,0.644 0.004,0.935 -0.662,0.951c-0.383,0.009 -72.176,0.004 -72.196,0.003c-0.665,-0.021 -0.839,-0.026 -0.844,-0.695c-0.031,-4.683 0.169,-4.676 -0.001,-6.616c-0.141,-1.614 0.732,-21.309 -0.401,-24.705c-0.165,-0.495 -0.199,-0.47 -0.449,-0.92c-0.298,-0.252 -0.298,-0.238 -0.638,-0.419c-0.549,-0.023 -0.541,-0.026 -1.097,-0.016c-0.544,0.259 -0.541,0.262 -0.94,0.709c-1.352,2.218 -0.608,11.811 -0.74,26.503c-0.051,5.633 0.221,5.825 -0.355,6.155c-0.002,0.001 -69.729,0.001 -69.895,0.001c-2.985,0.003 -3.138,0.047 -3.237,-0.364c-0.388,-1.611 -0.556,-1.561 -0.844,-3.189c-0.562,-1.576 -2.237,-7.555 -2.873,-11.222c-2.978,-11.719 -4.1,-27.961 -4.131,-30.787c-0.089,-8.212 -0.336,-21.917 4.188,-39.98c0.27,-1.155 0.535,-2.115 0.585,-2.298c0.331,-1.054 0.339,-1.044 0.449,-1.474c0.727,-2.843 -0.285,-4.682 0.214,-13.194c0.54,-6.365 0.611,-6.354 1.196,-9.528c1.367,-7.523 1.832,-7.608 2.139,-9.178c0.204,-1.044 2.567,-8.295 3.329,-10.124c0.381,-1.312 0.516,-1.259 0.86,-2.572c0.616,-2.356 0.675,-2.338 0.72,-2.544c0.544,-2.494 1.392,-4.062 1.926,-5.496c0.12,-0.307 0.659,-1.684 1.727,-3.746c1.012,-1.758 0.974,-1.845 1.418,-2.624c2.744,-4.817 2.532,-4.928 2.788,-5.337c1.042,-1.666 2.908,-6.372 3.133,-6.938c1.488,-4.417 1.775,-5.924 2.326,-10.078c0.071,-1.03 0.078,-1.337 0.081,-1.454c0.18,-7.946 -0.636,-11.093 -0.741,-11.791l-0.138,-0.835c-0.169,-0.791 -0.272,-1.288 -0.351,-1.69l115.265,0Z" style="fill:#fed4d5;"/><path d="M216.189,0c2.153,7.098 6.393,16.525 9.754,38.686c6.393,42.154 4.291,69.369 5.501,83.173c1.062,12.126 6.328,25.264 4.325,37.625c-1.612,9.947 -1.002,14.89 -8.734,25.865c-4.107,5.83 -5.308,9.552 -7.804,7.913c-1.104,-0.725 -1.967,-7.021 -1.791,-9.071c0.67,-7.775 6.754,-6.457 5.263,-15.638c-1.831,-11.281 -2.158,-15.715 -4.294,-15.506c-1.958,0.191 -1.235,4.367 -1.297,6.706c-0.208,7.82 -3.593,11.334 -4.985,11.609c-2.984,0.59 -2.794,-3.813 -3.014,-5.575c-3.301,-26.434 1.447,-32.603 2.596,-42.558c2.241,-19.418 -2.878,-30.032 -7.973,-48.058c-15.999,-56.608 -15.982,-56.601 -16.476,-59.003c-0.66,-3.208 -1.395,-9.437 -2.062,-16.169l30.989,0Z" style="fill:#fed4d5;"/><path d="M50.973,-0c-0.862,9.338 -1.652,15.167 -3.251,20.941c-0.657,2.372 -6.3,22.745 -8.369,29.606c-1.031,3.418 -6.833,23.986 -7.422,26.073c-5.298,18.777 -8.983,25.75 -7.701,43.65c1.052,14.677 6.594,15.363 2.456,48.85c-0.254,2.059 -2.585,2.716 -3.937,1.245c-5.297,-5.763 -3.032,-14.601 -3.763,-16.311c-0.963,-2.252 -3.007,-1.5 -3.806,3.541c-2.247,14.165 -2.399,14.316 -1.239,16.971c0.828,1.895 5.861,5.795 4.662,12.42c-0.79,4.368 -0.734,6.206 -2.565,6.406c-1.587,0.173 -2.362,-1.509 -2.388,-1.547c-8.647,-12.77 -10.644,-15.692 -12.058,-24.381c-1.762,-10.822 -1.613,-14.882 -1.565,-16.182c0.404,-11.03 2.856,-13.781 4.618,-28.83c1.257,-10.735 -1.13,-63.829 10.506,-107.6c2.322,-8.735 3.793,-11.207 4.872,-14.851l30.952,0Z" style="fill:#fed4d5;"/><path d="M136.287,61.135c-2.784,4.911 -19.106,31.566 -23.277,38.664c-1.889,3.216 -1.966,3.166 -24.102,39.915c-6.168,10.24 -6.077,11.513 -6.571,10.643c-0.116,-0.205 6.934,-15.341 7.438,-16.375c0.629,-1.364 0.67,-1.316 1.302,-2.654c1.592,-3.375 2.933,-4.007 0.121,-6.488c-4.156,-3.667 -8.182,-5.294 -8.395,-5.528c-0.428,-0.472 0.58,-0.371 1.594,-0.287c4.227,0.347 5.894,1.991 4.996,0.723c-3.15,-2.612 -4.923,-5.453 -5.672,-11.193c-0.061,-0.464 0.177,-0.431 0.595,-0.195c2.299,4.999 7.254,9.297 7.871,9.549l0.195,-0.019c0.086,-0.767 -1.027,-0.363 -3.861,-8.845c-1.682,-5.035 -1.349,-8.623 -1.293,-9.493c0.038,-0.587 0.432,-0.452 0.472,-0.474c0.295,1.329 2.522,11.344 7.228,15.403c0.319,0.275 0.487,0.065 0.35,-0.349c-0.206,-0.619 -0.224,-0.58 -0.421,-1.2c-0.341,-0.996 -0.249,-1 -0.544,-2.009c-0.216,-0.675 -0.211,-0.658 -0.343,-1.349c-0.041,-0.233 -0.401,-2.271 -0.502,-2.919c-0.484,-4.307 -0.494,-4.3 -0.154,-8.604c0.145,-0.984 0.131,-2.713 2.191,-7.279c1.596,-3.537 -0.675,3.173 1.333,11.765c0.559,1.993 0.548,1.969 1.382,3.895c1.032,0.111 -0.181,-0.681 0.057,-8.609c0.158,-12.743 3.296,-15.785 12.312,-26.372c1.813,-2.129 -1.513,2.363 -0.426,8.528c0.024,0.135 0.367,2.079 0.733,1.555c0.581,-0.831 -0.082,-8.413 5.174,-15.71c0.05,-0.069 2.232,-3.197 2.692,-3.834c7.602,-9.994 14.36,-20.23 20.98,-22.069c4.042,-1.123 10.364,-1.271 12.116,4.779c0.042,0.147 0.024,0.149 0.454,1.853c0.604,4.496 0.433,7.923 -1.709,15.757c-4.414,13.197 -8.905,18.108 -13.772,34.61c-0.461,1.561 -0.467,1.538 -0.989,3.061c-1.632,4.028 -1.544,4.11 -4.498,7.323c-0.518,0.461 -3.992,3.549 -7.006,5.097c-4.11,2.217 -5.094,1.733 -4.687,2.451c0.168,0.297 0.271,0.121 4.062,-1.293c3.878,-1.287 3.813,-1.411 7.427,-3.328l0.282,0.216c-1.482,1.752 -3.93,4.011 -4.309,4.367c-3.505,3.066 -3.769,3.259 -7.367,5.384l-1.443,0.772l-0.438,0.198c-2.929,1.249 -2.894,1.35 -5.856,1.728c-0.078,0.004 -3.368,0.159 -0.747,0.63l1.436,-0.021c5.973,-0.1 10.489,0.1 14.084,-2.571c1.734,-1.289 -0.233,2.196 -5.671,4.502c-4.468,1.895 -9.651,1.765 -10.502,1.743c-0.629,-0.06 -0.615,-0.146 -1.244,0.006l-0.078,0.234c1.343,0.616 8.251,2.141 11.323,1.423c0.655,-0.153 0.647,-0.17 0.678,-0.136c0.087,0.096 0.028,0.275 0.115,0.371c-2.67,1.476 -8.557,2.812 -12.034,2.049c-1.964,-0.431 -1.951,-0.478 -2.124,-0.5c-0.097,-0.012 -0.172,0.128 -0.268,0.116l0.518,0.334c0.307,0.151 0.274,0.17 0.592,0.292c3.162,1.215 4.466,4.248 4.38,4.479c-0.135,0.358 -0.291,0.038 -4.285,-2.13c-4.15,-1.623 -9.049,-3.139 -13.378,0.869c-1.784,1.652 0.264,-1.367 0.332,-1.467c0.611,-0.901 3.013,-5.038 3.27,-5.48c6.933,-11.941 15.297,-25.832 16.644,-28.068c4.955,-8.229 23.432,-40.562 23.438,-41.129c0.012,-1.112 -1.165,0.858 -1.229,0.966c-0.472,0.893 -0.464,0.868 -0.971,1.729Z" style="fill:#ba7cb4;"/></g></svg>