<?xml version="1.0" encoding="UTF-8" standalone="no"?><!DOCTYPE svg PUBLIC "-//W3C//DTD SVG 1.1//EN" "http://www.w3.org/Graphics/SVG/1.1/DTD/svg11.dtd"><svg width="100%" height="100%" viewBox="0 0 237 194" version="1.1" xmlns="http://www.w3.org/2000/svg" xmlns:xlink="http://www.w3.org/1999/xlink" xml:space="preserve" xmlns:serif="http://www.serif.com/" style="fill-rule:evenodd;clip-rule:evenodd;stroke-linejoin:round;stroke-miterlimit:2;"><g id="ovulation"><path d="M176.462,0c-0.116,0.548 -0.209,1.109 -0.403,2.22c-0.297,2.312 -0.42,2.286 -0.603,4.612c-0.378,5.19 -0.14,7.194 -0.026,8.908c0.099,1.151 0.228,3.239 1.077,6.043c2.154,9.134 7.577,16.241 9.56,21.245c2.556,4.967 2.959,9.175 4.449,12.72c0.876,2.083 2.997,9.378 3.39,10.378c0.073,0.255 1.212,4.975 1.414,6.029c0.193,1.005 0.198,0.993 0.371,1.998c2.504,13.516 0.79,20.621 1.302,22.396c0.888,3.076 1.672,6.396 1.805,6.956c1.848,8.209 1.561,8.251 2.56,14.374c0.115,1.148 0.115,1.135 0.243,2.271c0.152,1.537 1.102,11.114 0.763,19.292c-0.039,0.943 -0.346,8.348 -0.766,11.822c0.041,0.052 0.015,0.088 -0.015,0.122l-0.019,0.149c-0.182,2.164 -0.29,2.137 -0.503,4.289c-0.538,4.347 -0.618,4.322 -1.29,8.646c-0.043,0.276 -0.101,0.263 -0.695,3.419c-0.289,1.031 -0.316,1.792 -0.955,4.362c-0.689,3.865 -2.183,8.502 -2.987,11.773c-0.029,0.12 -0.059,0.108 -0.482,1.468c-0.2,0.644 0.004,0.935 -0.662,0.951c-0.383,0.009 -72.176,0.004 -72.196,0.003c-0.665,-0.021 -0.839,-0.026 -0.844,-0.695c-0.031,-4.683 0.169,-4.676 -0.001,-6.616c-0.141,-1.614 0.732,-21.309 -0.401,-24.705c-0.165,-0.495 -0.199,-0.47 -0.449,-0.92c-0.298,-0.252 -0.298,-0.238 -0.638,-0.419c-0.549,-0.023 -0.541,-0.026 -1.097,-0.016c-0.544,0.259 -0.541,0.262 -0.94,0.709c-1.352,2.218 -0.608,11.811 -0.74,26.503c-0.051,5.633 0.221,5.825 -0.355,6.155c-0.002,0.001 -69.729,0.001 -69.895,0.001c-2.985,0.003 -3.138,0.047 -3.237,-0.364c-0.388,-1.611 -0.556,-1.561 -0.844,-3.189c-0.562,-1.576 -2.237,-7.555 -2.873,-11.222c-2.978,-11.719 -4.1,-27.961 -4.131,-30.787c-0.089,-8.212 -0.336,-21.917 4.188,-39.98c0.27,-1.155 0.535,-2.115 0.585,-2.298c0.331,-1.054 0.339,-1.044 0.449,-1.474c0.727,-2.843 -0.285,-4.682 0.214,-13.194c0.54,-6.365 0.611,-6.354 1.196,-9.528c1.367,-7.523 1.832,-7.608 2.139,-9.178c0.204,-1.044 2.567,-8.295 3.329,-10.124c0.381,-1.312 0.516,-1.259 0.86,-2.572c0.616,-2.356 0.675,-2.338 0.72,-2.544c0.544,-2.494 1.392,-4.062 1.926,-5.496c0.12,-0.307 0.659,-1.684 1.727,-3.746c1.012,-1.758 0.974,-1.845 1.418,-2.624c2.744,-4.817 2.532,-4.928 2.788,-5.337c1.042,-1.666 2.908,-6.372 3.133,-6.938c1.488,-4.417 1.775,-5.924 2.326,-10.078c0.071,-1.03 0.078,-1.337 0.081,-1.454c0.18,-7.946 -0.636,-11.093 -0.741,-11.791l-0.138,-0.835c-0.169,-0.791 -0.272,-1.288 -0.351,-1.69l115.265,0Z" style="fill:#fed4d5;"/><path d="M216.189,0c2.153,7.098 6.393,16.525 9.754,38.686c6.393,42.154 4.291,69.369 5.501,83.173c1.062,12.126 6.328,25.264 4.325,37.625c-1.612,9.947 -1.002,14.89 -8.734,25.865c-4.107,5.83 -5.308,9.552 -7.804,7.913c-1.104,-0.725 -1.967,-7.021 -1.791,-9.071c0.67,-7.775 6.754,-6.457 5.263,-15.638c-1.831,-11.281 -2.158,-15.715 -4.294,-15.506c-1.958,0.191 -1.235,4.367 -1.297,6.706c-0.208,7.82 -3.593,11.334 -4.985,11.609c-2.984,0.59 -2.794,-3.813 -3.014,-5.575c-3.301,-26.434 1.447,-32.603 2.596,-42.558c2.241,-19.418 -2.878,-30.032 -7.973,-48.058c-15.999,-56.608 -15.982,-56.601 -16.476,-59.003c-0.66,-3.208 -1.395,-9.437 -2.062,-16.169l30.989,0Z" style="fill:#fed4d5;"/><path d="M50.973,-0c-0.862,9.338 -1.652,15.167 -3.251,20.941c-0.657,2.372 -6.3,22.745 -8.369,29.606c-1.031,3.418 -6.833,23.986 -7.422,26.073c-5.298,18.777 -8.983,25.75 -7.701,43.65c1.052,14.677 6.594,15.363 2.456,48.85c-0.254,2.059 -2.585,2.716 -3.937,1.245c-5.297,-5.763 -3.032,-14.601 -3.763,-16.311c-0.963,-2.252 -3.007,-1.5 -3.806,3.541c-2.247,14.165 -2.399,14.316 -1.239,16.971c0.828,1.895 5.861,5.795 4.662,12.42c-0.79,4.368 -0.734,6.206 -2.565,6.406c-1.587,0.173 -2.362,-1.509 -2.388,-1.547c-8.647,-12.77 -10.644,-15.692 -12.058,-24.381c-1.762,-10.822 -1.613,-14.882 -1.565,-16.182c0.404,-11.03 2.856,-13.781 4.618,-28.83c1.257,-10.735 -1.13,-63.829 10.506,-107.6c2.322,-8.735 3.793,-11.207 4.872,-14.851l30.952,0Z" style="fill:#fed4d5;"/><g opacity="0.5"><path d="M179.936,87.604c-3.755,3.895 -3.585,9.938 -10.644,11.713c-7.058,1.775 -13.738,-0.591 -14.918,-5.284c-1.18,-4.694 4.752,-9.822 12.014,-10.294c7.253,-0.47 16.906,0.381 13.547,3.865Z" style="fill:#f1ab9e;fill-rule:nonzero;"/><path d="M83.63,93.437c0.012,0.446 -0.036,0.892 -0.148,1.334c-1.181,4.694 -7.86,7.06 -14.917,5.284c-3.527,-0.887 -5.248,-2.839 -6.557,-5.056c-1.311,-2.221 -2.208,-4.709 -4.087,-6.658c-3.3,-3.423 5.958,-4.304 13.16,-3.889c0.13,0.008 0.259,0.015 0.387,0.024c4.724,0.306 8.885,2.584 10.892,5.431l0.001,0.001l1.269,3.528Z" style="fill:#f1ab9e;fill-rule:nonzero;"/><path d="M184.821,76.604c0,0 -0.924,7.944 -4.25,11.269c0,0 0,10.716 -3.695,10.716c0,0 -2.955,-0.739 -1.293,-5.912c0,0 -2.402,1.662 -4.803,0.553c-0.717,-0.331 -1.132,-0.498 -1.36,-0.568c0.226,-0.887 1.244,-4.443 3.023,-4.605c0,0 -7.389,-1.847 -7.389,-2.771c0,-0.923 0.369,-4.257 9.052,-2.586c0,0 2.525,1.725 4.004,-4.927c0,0 1.231,-7.143 -6.035,-8.252c0,0 -4.064,-1.477 -12.932,4.188c0,0 -8.498,3.694 -10.838,3.818c0,0 -4.804,3.326 -4.927,5.912c0,0 9.114,6.404 10.838,6.158l-0.493,3.941c0,0 -8.375,-4.311 -8.375,-5.419l-3.202,-2.218c0,0 0.122,8.745 -2.464,12.687c0,0 -1.725,4.679 -5.049,8.375c0,0 -2.833,4.927 -0.493,11.947c0,0 0.955,7.143 -1.262,11.392l-2.218,7.667c0,0 -2.309,11.454 -1.939,13.856c0,0 -0.278,4.065 -3.419,2.401l-2.217,-1.293c0,0 -2.401,-0.924 -8.96,-0.093c0,0 -3.88,2.956 -5.081,1.479c0,0 -0.924,-1.57 -1.201,-7.113c0,0 -1.294,-11.824 -2.864,-14.133c0,0 -2.678,-6.928 -2.586,-11.824c0,0 0.554,-6.189 1.663,-8.129c0,0 -0.832,-6.189 -2.31,-6.928c0,0 -5.081,-7.574 -4.988,-8.683c0,0 -2.401,-7.482 -2.218,-11.546l-5.542,4.249c0,0 -3.705,3.043 -5.368,3.228l-0.001,-0.004c-0.027,-1.207 -0.482,-2.411 -1.269,-3.528l-0.001,-0.001c0,0 3.498,-1.357 4.977,-2.281c0,0 5.819,-4.433 6.466,-4.157c0,0 -2.125,-4.711 -3.972,-5.081c-1.848,-0.37 -0.37,-0.923 -7.667,-2.863c0,0 -8.037,-3.326 -8.222,-3.787c-0.185,-0.463 -5.634,-2.586 -7.297,-2.218c0,0 -5.912,-0.277 -6.835,3.049c0,0 -1.94,0.554 -0.463,8.037c0,0 1.322,2.429 2.802,2.093c0,0 7.059,-2.117 8.931,1.753c0.043,0.09 0.084,0.183 0.121,0.279c0,0 -0.739,2.218 -7.02,2.956c0,0 3.509,3.141 2.493,6.097c0,0 -4.632,0 -5.223,-1.19c0.12,0.314 0.47,1.3 0.555,2.405c0.105,1.376 -0.204,2.933 -1.89,3.589c0,0 -3.695,-2.033 -3.695,-10.531c0,0 -5.542,-8.498 -4.064,-14.78c0,0 4.064,-12.377 17.181,-9.791c0,0 7.204,2.032 9.791,4.064c0,0 8.868,5.174 17.551,1.479c0,0 10.716,-9.053 25.126,-7.759c0,0 10.9,2.401 13.116,4.618c0,0 9.607,6.466 16.442,4.065c0,0 10.162,-3.695 12.009,-5.359c0,0 8.313,-2.586 12.378,-0.553c0,0 9.053,4.249 8.868,12.562Z" style="fill:#fc8080;fill-rule:nonzero;"/><path d="M90.386,74.418c0,0 14.041,-0.924 17.551,0c0,0 10.068,3.695 20.599,0.369c0,0 7.993,-1.629 17.366,-0.554l-7.021,3.418c0,0 -6.466,5.081 -6.651,6.559c0,0 -2.956,7.667 -2.586,9.699c0,0 -1.662,6.281 -5.912,10.253c0,0 -3.048,4.157 -2.771,5.727c0,0 -0.461,11.177 0.185,12.101c0,0 1.459,3.663 6.928,-0.831c0,0 1.663,1.847 0.093,5.173c0,0 -2.956,7.205 -3.326,11.916c0,0 -0.831,9.237 -0.462,10.716c0,0 -0.463,3.694 -1.294,3.972c0,0 -4.095,-0.955 -8.96,-0.093c0,0 -1.416,-1.231 -1.478,-5.912c0,0 0.062,-7.02 -0.369,-8.805c0,0 -1.047,-6.959 -1.971,-8.067l-2.032,-4.249l0.185,-5.358c0,0 2.586,2.956 5.666,2.648c0,0 2.402,0.431 2.156,-3.941c-0.247,-4.372 -0.124,-9.268 -0.124,-9.268c0,0 -0.646,-4.711 -3.233,-6.374l-2.833,-3.377c0,0 -3.202,-6.528 -2.71,-8.006c0,0 -1.355,-7.513 -3.695,-9.484c0,0 -5.05,-5.994 -13.302,-8.231Z" style="fill:#c63736;fill-rule:nonzero;"/></g></g></svg>