<?xml version="1.0" encoding="UTF-8" standalone="no"?>
<!DOCTYPE svg PUBLIC "-//W3C//DTD SVG 1.1//EN" "http://www.w3.org/Graphics/SVG/1.1/DTD/svg11.dtd">
<svg width="100%" height="100%" viewBox="0 0 237 194" version="1.1" xmlns="http://www.w3.org/2000/svg" xmlns:xlink="http://www.w3.org/1999/xlink" xml:space="preserve" xmlns:serif="http://www.serif.com/" style="fill-rule:evenodd;clip-rule:evenodd;stroke-linejoin:round;stroke-miterlimit:2;">
    <g transform="matrix(1,0,0,1,-1373.111067,-1706)">
        <g id="Period" transform="matrix(0.287634,0,0,0.287634,1389.77614,1703.20484)">
            <path d="M555.557,9.718C555.155,11.622 554.831,13.573 554.157,17.435C553.124,25.474 552.698,25.382 552.061,33.468C550.745,51.512 551.574,58.479 551.972,64.436C552.316,68.439 552.766,75.697 555.717,85.445C563.206,117.201 582.059,141.91 588.954,159.305C597.84,176.575 599.241,191.203 604.423,203.527C607.469,210.769 614.843,236.129 616.208,239.606C616.462,240.492 620.421,256.903 621.126,260.568C621.797,264.063 621.815,264.02 622.417,267.515C631.122,314.507 625.162,339.207 626.943,345.378C630.029,356.072 632.757,367.616 633.217,369.561C639.641,398.101 638.644,398.247 642.115,419.534C642.514,423.525 642.514,423.481 642.959,427.431C643.489,432.774 646.789,466.07 645.61,494.503C645.474,497.783 644.406,523.524 642.948,535.604C643.091,535.785 643.001,535.908 642.896,536.028L642.83,536.545C642.198,544.067 641.821,543.973 641.08,551.455C639.209,566.568 638.932,566.48 636.595,581.513C636.446,582.471 636.245,582.426 634.18,593.398C633.177,596.983 633.082,599.629 630.861,608.564C628.464,622.001 623.271,638.124 620.478,649.495C620.375,649.912 620.273,649.871 618.802,654.598C618.105,656.838 618.815,657.85 616.5,657.904C615.17,657.934 365.57,657.916 365.5,657.914C363.187,657.842 362.582,657.824 362.567,655.498C362.46,639.216 363.155,639.241 362.564,632.497C362.073,626.885 365.11,558.411 361.171,546.606C360.597,544.886 360.48,544.973 359.611,543.406C358.574,542.531 358.576,542.578 357.392,541.949C355.484,541.87 355.512,541.857 353.577,541.892C351.685,542.793 351.695,542.804 350.308,544.358C345.607,552.068 348.195,585.421 347.735,636.499C347.558,656.083 348.504,656.751 346.5,657.897C346.494,657.9 104.078,657.899 103.5,657.899C93.123,657.908 92.591,658.063 92.248,656.635C90.9,651.036 90.316,651.207 89.312,645.549C87.358,640.07 81.534,619.282 79.322,606.536C68.969,565.793 65.066,509.324 64.959,499.501C64.648,470.95 63.791,423.304 79.519,360.505C80.458,356.49 81.377,353.152 81.553,352.516C82.703,348.851 82.73,348.887 83.112,347.392C85.638,337.508 82.121,331.116 83.856,301.523C85.734,279.393 85.982,279.432 88.014,268.397C92.768,242.241 94.385,241.948 95.452,236.489C96.161,232.859 104.377,207.65 107.024,201.292C108.347,196.733 108.82,196.916 110.014,192.349C112.155,184.16 112.361,184.222 112.518,183.504C114.409,174.834 117.359,169.381 119.215,164.398C119.633,163.329 121.505,158.543 125.218,151.376C128.735,145.266 128.606,144.962 130.148,142.254C139.688,125.507 138.953,125.119 139.841,123.7C143.464,117.909 149.951,101.548 150.732,99.579C155.904,84.222 156.904,78.985 158.818,64.542C159.065,60.961 159.089,59.894 159.099,59.489C159.726,31.865 156.887,20.922 156.521,18.497L156.043,15.592C155.456,12.842 155.096,11.115 154.824,9.718L555.557,9.718Z" style="fill:rgb(254,212,213);"/>
            <g transform="matrix(0.954289,0,0,0.954289,-151.20699,-91.914852)">
                <path d="M885.351,106.501C893.195,132.359 908.643,166.705 920.887,247.441C944.177,401.015 936.521,500.163 940.928,550.455C944.799,594.634 963.984,642.495 956.686,687.53C950.814,723.768 953.036,741.776 924.867,781.759C909.904,802.999 905.531,816.557 896.437,810.586C892.417,807.946 889.27,785.007 889.914,777.54C892.355,749.214 914.519,754.015 909.089,720.567C902.417,679.468 901.226,663.314 893.446,664.075C886.314,664.772 888.948,679.984 888.721,688.507C887.963,716.997 875.632,729.798 870.56,730.801C859.689,732.951 860.381,716.909 859.579,710.491C847.553,614.186 864.851,591.714 869.037,555.444C877.201,484.701 858.55,446.034 839.99,380.362C781.704,174.13 781.766,174.157 779.965,165.405C777.56,153.717 774.884,131.025 772.451,106.501L885.351,106.501Z" style="fill:rgb(254,212,213);"/>
            </g>
            <g transform="matrix(0.954289,0,0,0.954289,-149.667026,-92.720788)">
                <path d="M281.824,107.345C278.684,141.366 275.805,162.603 269.979,183.636C267.585,192.278 247.026,266.5 239.489,291.497C235.735,303.95 214.595,378.881 212.449,386.485C193.149,454.893 179.723,480.298 184.395,545.509C188.226,598.979 208.417,601.478 193.342,723.476C192.415,730.978 183.924,733.37 178.999,728.011C159.701,707.017 167.952,674.818 165.288,668.586C161.781,660.382 154.334,663.12 151.421,681.487C143.235,733.094 142.68,733.642 146.907,743.315C149.924,750.218 168.259,764.428 163.891,788.563C161.011,804.477 161.218,811.172 154.547,811.899C148.764,812.53 145.941,806.402 145.847,806.263C114.344,759.741 107.069,749.095 101.916,717.439C95.498,678.014 96.039,663.222 96.213,658.487C97.683,618.304 106.617,608.282 113.035,553.454C117.613,514.343 108.917,320.913 151.311,161.449C159.771,129.628 165.131,120.619 169.06,107.345L281.824,107.345Z" style="fill:rgb(254,212,213);"/>
            </g>
            <g transform="matrix(1.182278,0,0,1.497126,158.146881,53.47411)">
                <path d="M242.036,196.525C244.936,220.91 228.674,244.838 228.663,245.5C228.61,248.696 248.27,272.194 240.309,287.394C228.81,309.348 197.725,302.351 198.119,276.482C198.172,272.942 201.886,268.115 196.53,270.585C159.324,287.74 107.815,269.461 93.834,223.394C83.345,188.832 101.728,159.931 109.351,141.438C109.985,139.9 120.694,119.38 124.763,112.647C125.82,110.897 125.74,110.892 137.725,90.622C142.269,82.937 164.534,48.988 165.475,48.466C167.424,47.384 168.888,50.302 186.702,77.371C196.793,92.706 231.094,148.909 239.233,181.56C242.39,194.226 241.961,195.929 242.036,196.525Z" style="fill:rgb(255,6,10);stroke:rgb(254,212,213);stroke-width:5.37px;"/>
                <path d="M193.499,321.735C192.182,321.638 181.811,320.867 182.417,309.497C182.743,303.369 192.459,289.57 192.512,289.516C194.28,287.709 197.431,294.243 200.89,300.277C209.369,315.068 201.071,321.212 193.499,321.735Z" style="fill:rgb(255,6,10);stroke:rgb(254,212,213);stroke-width:5.37px;"/>
            </g>
        </g>
    </g>
</svg>
