<?xml version="1.0" encoding="UTF-8" standalone="no"?>
<!DOCTYPE svg PUBLIC "-//W3C//DTD SVG 1.1//EN" "http://www.w3.org/Graphics/SVG/1.1/DTD/svg11.dtd">
<svg width="100%" height="100%" viewBox="0 0 237 195" version="1.1" xmlns="http://www.w3.org/2000/svg" xmlns:xlink="http://www.w3.org/1999/xlink" xml:space="preserve" xmlns:serif="http://www.serif.com/" style="fill-rule:evenodd;clip-rule:evenodd;stroke-linejoin:round;stroke-miterlimit:2;">
    <g transform="matrix(1,0,0,1,-1106.111067,-1704.773059)">
        <g id="PMS" transform="matrix(0.287634,0,0,0.287634,1122.77614,1702.964315)">
            <path d="M555.557,9.718C555.155,11.622 554.831,13.573 554.157,17.435C553.124,25.474 552.698,25.382 552.061,33.468C550.745,51.512 551.574,58.479 551.972,64.436C552.316,68.439 552.766,75.697 555.717,85.445C563.206,117.201 582.059,141.91 588.954,159.305C597.84,176.575 599.241,191.203 604.423,203.527C607.469,210.769 614.843,236.129 616.208,239.606C616.462,240.492 620.421,256.903 621.126,260.568C621.797,264.063 621.815,264.02 622.417,267.515C631.122,314.507 625.162,339.207 626.943,345.378C630.029,356.072 632.757,367.616 633.217,369.561C639.641,398.101 638.644,398.247 642.115,419.534C642.514,423.525 642.514,423.481 642.959,427.431C643.489,432.774 646.789,466.07 645.61,494.503C645.474,497.783 644.406,523.524 642.948,535.604C643.091,535.785 643.001,535.908 642.896,536.028L642.83,536.545C642.198,544.067 641.821,543.973 641.08,551.455C639.209,566.568 638.932,566.48 636.595,581.513C636.446,582.471 636.245,582.426 634.18,593.398C633.177,596.983 633.082,599.629 630.861,608.564C628.464,622.001 623.271,638.124 620.478,649.495C620.375,649.912 620.273,649.871 618.802,654.598C618.105,656.838 618.815,657.85 616.5,657.904C615.17,657.934 365.57,657.916 365.5,657.914C363.187,657.842 362.582,657.824 362.567,655.498C362.46,639.216 363.155,639.241 362.564,632.497C362.073,626.885 365.11,558.411 361.171,546.606C360.597,544.886 360.48,544.973 359.611,543.406C358.574,542.531 358.576,542.578 357.392,541.949C355.484,541.87 355.512,541.857 353.577,541.892C351.685,542.793 351.695,542.804 350.308,544.358C345.607,552.068 348.195,585.421 347.735,636.499C347.558,656.083 348.504,656.751 346.5,657.897C346.494,657.9 104.078,657.899 103.5,657.899C93.123,657.908 92.591,658.063 92.248,656.635C90.9,651.036 90.316,651.207 89.312,645.549C87.358,640.07 81.534,619.282 79.322,606.536C68.969,565.793 65.066,509.324 64.959,499.501C64.648,470.95 63.791,423.304 79.519,360.505C80.458,356.49 81.377,353.152 81.553,352.516C82.703,348.851 82.73,348.887 83.112,347.392C85.638,337.508 82.121,331.116 83.856,301.523C85.734,279.393 85.982,279.432 88.014,268.397C92.768,242.241 94.385,241.948 95.452,236.489C96.161,232.859 104.377,207.65 107.024,201.292C108.347,196.733 108.82,196.916 110.014,192.349C112.155,184.16 112.361,184.222 112.518,183.504C114.409,174.834 117.359,169.381 119.215,164.398C119.633,163.329 121.505,158.543 125.218,151.376C128.735,145.266 128.606,144.962 130.148,142.254C139.688,125.507 138.953,125.119 139.841,123.7C143.464,117.909 149.951,101.548 150.732,99.579C155.904,84.222 156.904,78.985 158.818,64.542C159.065,60.961 159.089,59.894 159.099,59.489C159.726,31.865 156.887,20.922 156.521,18.497L156.043,15.592C155.456,12.842 155.096,11.115 154.824,9.718L555.557,9.718Z" style="fill:rgb(254,212,213);"/>
            <g transform="matrix(0.954289,0,0,0.954289,-151.20699,-91.914852)">
                <path d="M885.351,106.501C893.195,132.359 908.643,166.705 920.887,247.441C944.177,401.015 936.521,500.163 940.928,550.455C944.799,594.634 963.984,642.495 956.686,687.53C950.814,723.768 953.036,741.776 924.867,781.759C909.904,802.999 905.531,816.557 896.437,810.586C892.417,807.946 889.27,785.007 889.914,777.54C892.355,749.214 914.519,754.015 909.089,720.567C902.417,679.468 901.226,663.314 893.446,664.075C886.314,664.772 888.948,679.984 888.721,688.507C887.963,716.997 875.632,729.798 870.56,730.801C859.689,732.951 860.381,716.909 859.579,710.491C847.553,614.186 864.851,591.714 869.037,555.444C877.201,484.701 858.55,446.034 839.99,380.362C781.704,174.13 781.766,174.157 779.965,165.405C777.56,153.717 774.884,131.025 772.451,106.501L885.351,106.501Z" style="fill:rgb(254,212,213);"/>
            </g>
            <g transform="matrix(0.954289,0,0,0.954289,-149.667026,-92.720788)">
                <path d="M281.824,107.345C278.684,141.366 275.805,162.603 269.979,183.636C267.585,192.278 247.026,266.5 239.489,291.497C235.735,303.95 214.595,378.881 212.449,386.485C193.149,454.893 179.723,480.298 184.395,545.509C188.226,598.979 208.417,601.478 193.342,723.476C192.415,730.978 183.924,733.37 178.999,728.011C159.701,707.017 167.952,674.818 165.288,668.586C161.781,660.382 154.334,663.12 151.421,681.487C143.235,733.094 142.68,733.642 146.907,743.315C149.924,750.218 168.259,764.428 163.891,788.563C161.011,804.477 161.218,811.172 154.547,811.899C148.764,812.53 145.941,806.402 145.847,806.263C114.344,759.741 107.069,749.095 101.916,717.439C95.498,678.014 96.039,663.222 96.213,658.487C97.683,618.304 106.617,608.282 113.035,553.454C117.613,514.343 108.917,320.913 151.311,161.449C159.771,129.628 165.131,120.619 169.06,107.345L281.824,107.345Z" style="fill:rgb(254,212,213);"/>
            </g>
            <g transform="matrix(0.898336,0,0,0.898336,-1103.680533,-2194.542055)">
                <g transform="matrix(0.423224,0,0,0.423224,1184.731761,2539.042691)">
                    <path d="M1596.61,599.456C1562.27,635.069 1563.83,690.331 1499.28,706.564C1434.74,722.798 1373.66,701.163 1362.87,658.243C1352.08,615.322 1406.32,568.424 1472.73,564.116C1539.05,559.815 1627.32,567.596 1596.61,599.456Z" style="fill:rgb(241,171,158);fill-rule:nonzero;"/>
                </g>
                <g transform="matrix(0.423224,0,0,0.423224,1184.731761,2539.042691)">
                    <path d="M715.96,652.8C716.07,656.88 715.63,660.96 714.61,665C703.81,707.92 642.74,729.56 578.2,713.32C545.95,705.21 530.21,687.36 518.24,667.09C506.25,646.78 498.05,624.03 480.87,606.21C450.69,574.91 535.35,566.85 601.21,570.65C602.4,570.72 603.58,570.79 604.75,570.87C647.95,573.67 686,594.5 704.35,620.53L704.36,620.54L715.96,652.8Z" style="fill:rgb(241,171,158);fill-rule:nonzero;"/>
                </g>
                <g transform="matrix(0.423224,0,0,0.423224,1184.731761,2539.042691)">
                    <path d="M1641.28,498.87C1641.28,498.87 1632.83,571.51 1602.42,601.92C1602.42,601.92 1602.42,699.91 1568.63,699.91C1568.63,699.91 1541.61,693.15 1556.81,645.85C1556.81,645.85 1534.85,661.05 1512.89,650.91C1506.33,647.88 1502.54,646.36 1500.45,645.72C1502.52,637.61 1511.83,605.09 1528.09,603.61C1528.09,603.61 1460.52,586.72 1460.52,578.27C1460.52,569.83 1463.89,539.34 1543.29,554.62C1543.29,554.62 1566.38,570.39 1579.9,509.57C1579.9,509.57 1591.16,444.25 1524.71,434.11C1524.71,434.11 1487.55,420.6 1406.46,472.41C1406.46,472.41 1328.75,506.19 1307.35,507.32C1307.35,507.32 1263.42,537.73 1262.3,561.38C1262.3,561.38 1345.64,619.94 1361.41,617.69L1356.9,653.73C1356.9,653.73 1280.32,614.31 1280.32,604.18L1251.04,583.9C1251.04,583.9 1252.16,663.87 1228.51,699.91C1228.51,699.91 1212.74,742.7 1182.34,776.49C1182.34,776.49 1156.43,821.54 1177.83,885.74C1177.83,885.74 1186.56,951.06 1166.29,989.91L1146.01,1060.02C1146.01,1060.02 1124.9,1164.76 1128.28,1186.72C1128.28,1186.72 1125.74,1223.89 1097.02,1208.68L1076.75,1196.86C1076.75,1196.86 1054.79,1188.41 994.82,1196.01C994.82,1196.01 959.34,1223.04 948.36,1209.53C948.36,1209.53 939.91,1195.17 937.38,1144.49C937.38,1144.49 925.55,1036.37 911.19,1015.25C911.19,1015.25 886.7,951.9 887.54,907.13C887.54,907.13 892.61,850.54 902.75,832.8C902.75,832.8 895.14,776.21 881.63,769.45C881.63,769.45 835.17,700.19 836.02,690.05C836.02,690.05 814.06,621.63 815.74,584.47L765.06,623.32C765.06,623.32 731.18,651.15 715.97,652.84L715.96,652.8C715.71,641.76 711.55,630.75 704.36,620.54L704.35,620.53C704.35,620.53 736.34,608.12 749.86,599.67C749.86,599.67 803.07,559.13 808.99,561.66C808.99,561.66 789.56,518.58 772.67,515.2C755.77,511.82 769.29,506.76 702.56,489.02C702.56,489.02 629.07,458.61 627.38,454.39C625.69,450.16 575.86,430.74 560.65,434.11C560.65,434.11 506.59,431.58 498.15,461.99C498.15,461.99 480.41,467.06 493.92,535.48C493.92,535.48 506.01,557.69 519.539,554.62C519.539,554.62 584.09,535.26 601.21,570.65C601.6,571.47 601.98,572.32 602.32,573.2C602.32,573.2 595.56,593.48 538.13,600.23C538.13,600.23 570.22,628.95 560.93,655.98C560.93,655.98 518.57,655.98 513.169,645.1C514.27,647.97 517.469,656.99 518.24,667.09C519.2,679.67 516.37,693.91 500.96,699.91C500.96,699.91 467.17,681.32 467.17,603.61C467.17,603.61 416.49,525.9 430.01,468.46C430.01,468.46 467.17,355.28 587.12,378.93C587.12,378.93 653,397.51 676.65,416.09C676.65,416.09 757.74,463.4 837.14,429.61C837.14,429.61 935.13,346.83 1066.9,358.66C1066.9,358.66 1166.57,380.62 1186.84,400.89C1186.84,400.89 1274.69,460.02 1337.19,438.06C1337.19,438.06 1430.11,404.27 1447,389.06C1447,389.06 1523.02,365.41 1560.19,384C1560.19,384 1642.97,422.85 1641.28,498.87Z" style="fill:rgb(252,128,128);fill-rule:nonzero;"/>
                </g>
                <g transform="matrix(0.423224,0,0,0.423224,1184.731761,2539.042691)">
                    <path d="M777.734,478.882C777.734,478.882 906.125,470.435 938.223,478.882C938.223,478.882 1030.29,512.669 1126.59,482.26C1126.59,482.26 1199.68,467.361 1285.39,477.192L1221.19,508.445C1221.19,508.445 1162.06,554.903 1160.37,568.418C1160.37,568.418 1133.34,638.526 1136.72,657.109C1136.72,657.109 1121.52,714.547 1082.66,750.868C1082.66,750.868 1054.79,788.879 1057.32,803.238C1057.32,803.238 1053.1,905.445 1059.01,913.891C1059.01,913.891 1072.35,947.389 1122.36,906.289C1122.36,906.289 1137.57,923.183 1123.21,953.591C1123.21,953.591 1096.18,1019.48 1092.8,1062.55C1092.8,1062.55 1085.2,1147.02 1088.58,1160.54C1088.58,1160.54 1084.35,1194.32 1076.75,1196.86C1076.75,1196.86 1039.3,1188.13 994.816,1196.01C994.816,1196.01 981.865,1184.75 981.301,1141.95C981.301,1141.95 981.865,1077.76 977.923,1061.43C977.923,1061.43 968.35,997.796 959.903,987.66L941.32,948.805L943.009,899.813C943.009,899.813 966.66,926.843 994.816,924.028C994.816,924.028 1016.78,927.969 1014.53,887.988C1012.27,848.006 1013.4,803.238 1013.4,803.238C1013.4,803.238 1007.49,760.16 983.836,744.956L957.932,714.078C957.932,714.078 928.65,654.387 933.155,640.872C933.155,640.872 920.766,572.172 899.368,554.152C899.368,554.152 853.192,499.342 777.734,478.882Z" style="fill:rgb(198,55,54);fill-rule:nonzero;"/>
                </g>
            </g>
            <g transform="matrix(1.539964,0,0,1.539964,-68.889155,-102.699611)">
                <path d="M116.679,331.61C122.482,322.623 122.338,322.537 122.852,321.763C124.773,318.871 126.129,323.29 126.298,323.613C131.604,333.739 131.712,333.642 137.098,343.703C154.751,376.671 154.812,376.596 157.785,382.35C159.441,385.556 160.57,384.615 163.287,382.246C168.092,378.057 169.889,376.194 171.019,376.994C171.464,377.309 186.952,414.09 187.929,416.299C189.665,420.222 190.949,417.925 194.728,415.937C203.495,411.327 205.941,408.965 207.231,410.731C207.635,411.286 213.995,422.044 215.846,425.299C220.93,434.236 231.054,450.365 231.045,450.429C231.016,450.647 230.651,452.02 228.399,449.722C221.975,443.163 212.968,435.877 207.723,431.246C204.094,428.042 203.94,426.664 199.509,428.52C198.222,429.06 188.986,432.93 183.369,435.149C180.141,436.424 179.909,433.171 176.911,427.299C176.155,425.818 165.186,402.669 165.183,402.663C163.169,398.828 161.938,401.491 151.537,404.621C147.919,405.711 144.643,400.385 144.643,400.385C144.643,400.385 127.405,378.234 109.393,356.586C104.982,351.284 104.564,350.767 106.182,348.293C106.469,347.853 106.456,347.857 116.679,331.61Z" style="fill:rgb(160,30,34);"/>
            </g>
            <g transform="matrix(1.539964,0,0,1.539964,-198.246121,-138.118781)">
                <path d="M426.011,415.199C430.569,410.493 447.289,390.391 450.587,386.575C452.743,384.079 464.831,370.091 476.932,354.854C479.372,351.783 480.147,349.372 482.343,352.609C483.022,353.609 490.288,366.029 490.643,366.265C490.822,366.384 491.999,366.259 492.123,366.119C492.639,365.532 504.097,346.933 505.128,345.258C506.683,342.735 524.263,314.199 524.798,313.858C526.188,312.973 526.823,314.533 532.711,321.318C540.193,329.939 540.644,330.507 539.288,332.34C538.936,332.816 489.483,393.277 489.379,393.403C487.885,395.199 487.483,396.304 486.408,395.905C484.192,395.084 479.063,379.579 476.527,379.736C475.818,379.78 433.768,411.363 427.288,417.208C427.155,417.328 427.161,417.314 425.567,418.646C425.803,416.467 425.749,416.48 426.011,415.199Z" style="fill:rgb(160,30,34);"/>
            </g>
            <g transform="matrix(1.539964,0,0,1.539964,-245.985001,-44.180984)">
                <path d="M352.524,104.133C345.598,103.591 342.819,104.617 344.132,100.39C358.388,54.516 357.93,54.383 359.212,50.409C363.399,37.427 364.019,33.567 364.872,32.935C366.536,31.703 393.721,37.883 393.938,38.072C395.3,39.253 393.388,40.921 392.888,41.745C383.095,57.88 382.461,57.441 372.63,73.578C368.237,80.788 362.159,89.516 362.195,90.528C362.244,91.929 365.205,91.957 370.429,92.905C376.106,93.935 376.087,93.961 376.58,94.048C379.758,94.612 381.666,94.467 380.097,97.301C377.217,102.507 357.402,145.369 355.826,148.661C346.617,167.892 348.344,169.389 346.523,169.585C343.915,169.865 347.487,163.11 349.459,155.491C360.922,111.217 361.152,111.283 362.093,107.419C362.856,104.288 357.925,104.701 352.524,104.133Z" style="fill:rgb(160,30,35);"/>
            </g>
        </g>
    </g>
</svg>
