<?xml version="1.0" encoding="UTF-8" standalone="no"?>
<!DOCTYPE svg PUBLIC "-//W3C//DTD SVG 1.1//EN" "http://www.w3.org/Graphics/SVG/1.1/DTD/svg11.dtd">
<svg width="100%" height="100%" viewBox="0 0 218 171" version="1.1" xmlns="http://www.w3.org/2000/svg" xmlns:xlink="http://www.w3.org/1999/xlink" xml:space="preserve" xmlns:serif="http://www.serif.com/" style="fill-rule:evenodd;clip-rule:evenodd;stroke-linejoin:round;stroke-miterlimit:2;">
    <g transform="matrix(1,0,0,1,-1004.549969,-660.932441)">
        <g transform="matrix(1,0,0,1,970,633)">
            <path d="M194.487,42.072C199.057,41.628 199.06,41.736 203.516,40.559C206.979,39.644 213.728,37.101 214.605,36.77C237.728,28.054 256.144,49.008 251.624,71.524C248.73,85.939 243.511,83.908 239.131,99.402C233.536,119.194 209.209,123.928 202.939,108.325C199.529,99.839 205.264,83.017 224.535,80.764C237.909,79.2 240.372,55.01 227.397,51.97C222.625,50.852 214.949,54.191 213.676,54.851C196.183,63.917 195.175,73.602 194.351,83.488C191.439,118.432 178.795,120.069 173.988,131.691C169.699,142.059 178.602,145.552 168.327,166.412C158.671,186.016 164.695,191.868 160.365,196.368C155.632,201.287 150.415,196.692 139.542,197.85C136.68,198.155 125.225,201.686 124.663,191.491C123.409,168.766 118.181,169.513 114.785,157.42C112.14,148 113.565,144.014 113.788,142.548C116.475,124.892 101.359,124.103 95.412,101.524C90.777,83.926 94.263,75.685 87.149,65.754C81.895,58.42 57.337,41.382 51.364,60.457C49.736,65.656 52.117,72.663 53.868,75.251C57.883,81.185 63.218,80.836 63.457,80.868C65.166,81.095 75.725,82.498 81.671,92.39C92.378,110.202 74.415,124.341 58.699,114.182C49.239,108.066 48.103,100.826 47.227,97.572C44.641,87.96 38.169,83.277 35.841,74.408C29.294,49.471 48.68,29.031 70.618,36.149C84.8,40.75 87.43,43.898 101.574,40.806C110.059,38.951 121.496,28.285 141.51,27.945C170.55,27.451 174.216,41.736 194.487,42.072ZM147.93,138.52C148.837,123.076 153.717,119.837 160.28,112.31C172.253,98.576 168.456,86.944 174.024,75.282C179.81,63.164 191.362,60.259 188.287,55.648C185.169,50.973 175.269,60.264 148.49,61.225C116.062,62.389 104.672,52.387 99.609,54.727C95.137,56.795 101.428,62.027 103.809,64.153C119.317,78.002 113.276,85.103 119.662,101.44C124.776,114.523 134.877,116.155 138.053,131.599C140.141,141.746 137.242,155.907 143.49,155.224C148.159,154.713 147.677,147.757 147.93,138.52Z"/>
            <g transform="matrix(0.215376,-0.09237,0.114283,0.266468,108.001144,69.092248)">
                <path d="M173.544,41.443C173.538,41.897 174.603,42.142 173.018,44.193C170.862,46.981 167.212,52.881 166.734,53.654L166.279,54.358C165.399,55.717 165.339,55.666 155.09,71.232C152.974,74.308 139.564,94.717 138.406,96.437C137.362,97.984 133.493,103.912 133.211,104.307C128.289,111.22 128.439,111.547 128.873,112.115C129.225,112.577 129.383,112.413 150.5,112.418C166.162,112.422 166.147,112.401 173.536,112.27C175.192,112.241 176.105,113.485 174.535,114.531C172.788,115.695 172.805,115.711 154.852,131.891C153.903,132.747 151.994,134.551 151.747,134.784C149.787,136.612 149.813,136.598 149.186,137.159C146.267,139.757 146.259,139.714 143.385,142.371C137.067,148.24 136.901,148.029 128.156,156.135C127.344,156.866 127.33,156.817 126.529,157.533C125.197,158.723 125.186,158.658 123.856,159.889C122.892,160.766 122.861,160.699 111.751,170.781C110.923,171.549 104.229,177.754 101.32,180.295C98.11,183.112 98.21,183.174 95.064,186.02C93.406,187.402 93.638,187.639 74.899,203.945C74.728,204.094 74.752,204.087 72.832,205.882C72.09,206.575 71.995,206.45 63.436,214.427C63.073,214.754 63.093,214.735 57.608,219.62C42.121,233.414 42.725,234.071 41.253,235.111C41.231,235.127 38.815,236.054 40.005,233.474C40.192,233.069 40.268,233.118 42.671,228.585C45.576,222.982 45.504,222.967 51.959,209.715C59.934,193.691 59.635,193.568 67.719,177.607C68.228,176.601 68.208,176.624 68.716,175.604C75.22,162.144 84.811,142.861 84.824,142.52C84.886,140.877 83.637,140.799 83.461,140.788C83.186,140.771 77.059,140.826 76.503,140.831C73.859,140.836 44.63,140.893 43.456,140.848C40.283,140.726 41.913,138.719 42.995,136.775C46.568,130.99 51.125,122.954 51.424,122.455C53.844,118.585 60.09,107.483 60.655,106.586C62.857,103.059 62.831,103.05 86.968,61.766C98.324,42.344 98.364,41.465 100.478,41.311C102.285,41.178 170.387,41.267 170.501,41.263C172.438,41.208 172.41,41.174 172.576,41.184C173.082,41.214 173.001,41.411 173.544,41.443Z" style="fill:rgb(34,31,32);"/>
            </g>
        </g>
    </g>
</svg>
