<?xml version="1.0" encoding="UTF-8" standalone="no"?><!DOCTYPE svg PUBLIC "-//W3C//DTD SVG 1.1//EN" "http://www.w3.org/Graphics/SVG/1.1/DTD/svg11.dtd"><svg width="100%" height="100%" viewBox="0 0 130 194" version="1.1" xmlns="http://www.w3.org/2000/svg" xmlns:xlink="http://www.w3.org/1999/xlink" xml:space="preserve" xmlns:serif="http://www.serif.com/" style="fill-rule:evenodd;clip-rule:evenodd;stroke-linejoin:round;stroke-miterlimit:2;"><g><path d="M116.98,30.992c-0.281,1.962 -0.214,1.936 -0.267,3.902c1.037,10.532 5.702,17.347 5.688,22.157l-0.487,0.255c-1.665,-2.091 -1.727,-2.005 -3.875,-3.616l-1.517,-0.928c-1.525,-0.88 -1.506,-0.818 -3.14,-1.554c-12.599,-4.795 -13.128,-2.985 -27.041,-7.905l-1.178,-0.447c-0.038,0.007 -0.078,-0.017 -0.119,-0.045l-0.179,-0.068l-2.186,-0.973c-2.93,-1.477 -2.912,-1.455 -5.724,-3.187c-0.453,-0.322 -0.466,-0.259 -0.915,-0.579c-0.065,-0.046 -0.058,-0.046 -0.782,-0.618l-1.182,-0.92c-1.87,-1.55 -1.844,-1.537 -3.597,-3.2c-3.404,-3.856 -5.067,-6.82 -4.303,-4.153c0.036,0.125 3.215,4.579 3.498,4.975l2.142,2.475c6.734,6.622 12.218,8.622 20.567,11.406c12.696,3.599 15.311,3.936 21.276,6.962c6.491,4.055 7.041,6.644 7.499,11.652l-0.03,1.777l-0.182,2.507l-0.399,2.847l-0.234,1.749c-0.254,3.006 -0.663,5.016 0.525,9.278c1.596,4.16 6.17,7.894 2.6,5.193c-0.545,-0.412 -2.967,-3.207 -3.215,-3.495l-0.306,-0.391c-0.877,-1.338 -0.87,-1.3 -1.632,-2.701l-0.332,-0.728l-0.27,-0.743l-0.105,-0.324l-0.188,-0.749c-0.923,-9.789 2.648,-11.704 -4.818,-17.32c-1.487,-0.935 -1.476,-0.883 -3.043,-1.696c-0.175,-0.078 -1.47,-0.656 -2.177,-1.003c-0.317,-0.133 -0.297,-0.116 -4.004,-1.571l-0.316,-0.111c-4.787,-1.565 -4.734,-1.585 -9.584,-2.97c-7.261,-2.067 -8.563,-2.451 -9.306,-2.67c-5.744,-1.715 -5.717,-1.668 -11.334,-3.706c-5.917,-2.533 -6.772,-2.658 -12.273,-6.878c-0.112,-0.089 -0.094,-0.085 -1.353,-1.166c-7.428,-7.609 -5.644,-10.005 -7.144,-12.414c-0.892,-1.432 -0.231,1.862 -0.199,2.021l1.095,3.535c1.937,4.368 2.847,7.12 9.579,12.398c1.953,1.344 1.975,1.268 5.313,3.223c3.884,1.844 3.82,1.912 9.253,3.887c5.704,1.862 5.669,1.859 11.403,3.507c3.002,0.825 4.831,1.221 9.972,2.852c2.856,0.923 2.853,0.856 7.098,2.593c0.668,0.322 0.656,0.272 1.318,0.591c0.171,0.082 0.157,0.079 2.116,1.065c2.64,1.641 5.431,3.379 5.735,7.67c0.362,5.101 -1.359,5.794 0.352,11.765c0.127,0.248 1.45,2.54 0.774,2.52c-0.43,-0.013 -1.919,-2.681 -2.059,-2.931l-0.33,-0.729c-1.003,-2.543 -0.85,-2.565 -1.286,-5.269l-0.142,-0.748l-0.216,-1.387l-0.139,-0.755l-0.244,-1.008c-0.591,-1.426 -0.492,-1.442 -1.472,-2.687c-0.716,-0.604 -0.726,-0.554 -1.519,-1.08c-1.06,-0.397 -1.698,-0.978 -1.585,0.16c0.037,0.375 0.059,0.325 0.681,4.657l0.125,0.692c0.309,1.489 0.327,2.394 1.681,6.801l0.782,2.111c0.301,0.689 0.266,0.671 0.554,1.333c0.025,0.058 0.025,0.053 0.338,0.715c1.065,1.988 0.995,2.019 0.942,2.234c-0.098,0.395 -0.262,0.194 -1.452,0.27l-2.116,0.241c-0.175,-0.134 -0.202,-0.41 -0.378,-0.544c-0.092,-0.07 -0.1,0.767 -1.43,0.473c-1.381,-0.305 -7.538,2.685 -8.21,3.308c-2.875,1.215 -10.533,4.447 -11.422,5.019c-0.13,0.084 -0.141,0.007 -1.895,0.39l0.437,-1.02c1.093,-4.672 0.419,-5.626 0.215,-7.825c-0.339,-1.544 -0.427,-1.487 -0.758,-2.502l-0.653,-1.453c-0.283,-0.539 -0.788,-2.258 -1.878,-1.63c-2.951,1.698 -3.922,2.352 -7.177,3.034c-1.275,0.089 -1.234,0.057 -2.47,0.014c-7.034,-1.817 -3.161,-7.223 -6.765,-8.163c-0.139,-0.036 -3.168,-0.332 -2.729,-1.714c0.241,-0.76 0.7,-1.137 -0.109,-1.197c-1.614,-0.12 -2.145,-0.25 -1.723,-2.004c0.266,-0.912 0.328,-0.872 0.286,-1.809l-0.228,-0.452c-0.657,-0.588 -0.66,-0.58 -1.539,-0.774c-1.977,-0.108 -1.947,0.089 -3.902,-0.008c-2.311,-2.044 1.841,-3.653 -0.313,-11.611l-0.212,-0.628l-0.422,-0.836l-0.272,-0.58l-0.096,-0.142c-0.252,-0.459 -1.09,-1.985 -3.495,-5.532l-0.113,-0.148l-1.455,-2.466l-0.675,-1.43l-0.239,-0.616c-1.733,-4.874 -1.94,-5.649 -1.929,-12.157l0.083,-1.412c0.674,-5.107 0.678,-5.101 2.464,-9.929c0.189,-0.387 0.153,-0.367 0.327,-0.723c0.028,-0.057 0.027,-0.052 0.363,-0.702c0.057,-0.113 0.074,-0.1 0.729,-1.406c2.518,-4.29 2.688,-4.136 4.402,-6.227c1.69,-2.028 2.776,-2.874 3.174,-3.243c1.493,-1.348 1.492,-1.281 3.079,-2.57l0.252,-0.153l0.802,-0.587l0.239,-0.163l0.401,-0.29l1.08,-0.69l0.419,-0.266c1.358,-0.878 1.312,-0.89 2.751,-1.574l1.132,-0.571c2.072,-0.911 2.048,-0.894 4.166,-1.709l0.42,-0.163c2.128,-0.602 2.092,-0.593 4.241,-1.197l2.132,-0.413l0.399,-0.081l0.701,-0.083l1.76,-0.196l1.444,-0.131l2.132,-0.063l2.488,0.076l2.843,0.339l0.695,0.097l1.837,0.429c1.977,0.592 1.942,0.585 3.856,1.26l1.737,0.793c1.798,1.031 1.805,0.977 3.545,2.131l0.925,0.761c0.959,0.724 0.951,0.683 1.899,1.393l0.394,0.3l0.167,0.139l1.971,1.3c1.209,0.688 1.162,0.754 2.526,1.125c1.122,0.132 1.103,0.131 2.21,-0.047c0.84,-0.378 1.074,-0.138 3.28,-2.137c1.594,-1.245 1.465,-1.501 3.446,-1.992c0.7,0.037 0.654,0.061 1.369,0.225l0.133,0.08c0.724,0.55 0.691,0.556 1.219,1.269l0.115,0.298l0.103,0.325c0.304,2.35 -0.373,2.391 0.242,4.676c0.173,0.132 0.409,0.312 2.446,1.184l0.556,0.403l0.769,0.656c0.716,1.483 0.699,1.558 0.064,3.378l-0.451,0.838c-0.464,1.348 0.043,1.304 1.187,2.185l1.092,0.997c0.534,1.007 0.523,0.99 0.549,2.127c-0.48,1.159 -0.592,1.153 -1.915,1.717l-1.48,0.593c-1.834,1.126 -2.089,1.383 -2.897,3.67l-0.169,0.754l-0.046,0.347l-0.03,2.134c0.256,2.005 0.235,1.967 0.58,3.948c0.995,3.873 1.03,3.823 2.06,7.398l0.141,0.424l0.095,0.328l0.801,2.826c1.078,4.123 1.06,4.088 1.919,8.241c0.158,1.102 1.382,9.618 0.518,13.906c-0.134,0.662 -0.781,0.331 -0.675,-0.421c0.175,-1.237 -0.581,-6.23 -0.663,-6.768c-0.336,-1.816 -0.373,-1.77 -0.809,-3.547c-0.674,-2.343 -0.67,-2.297 -1.426,-4.632c-0.527,-1.441 -0.495,-1.425 -1.029,-2.864l-0.395,-1.055l-0.531,-1.35c-2.034,-4.965 -2.078,-4.909 -3.956,-9.965c-1.977,-6.734 -1.863,-6.884 -0.908,-11.099c0.929,-4.1 -0.948,0.326 -0.974,0.406l-0.383,1.39Zm-59.309,30.233c-0.201,0.352 -0.173,0.335 -0.206,0.732l0.206,-0.732Z" style="fill:#fed4d5;"/><path d="M101.786,175.24c0,0.004 0,0.009 0.001,0.013c-0.002,0.006 -0.005,0.012 -0.007,0.019c0.002,-0.01 0.004,-0.021 0.007,-0.031Z" style="fill:#fed4d5;"/><path d="M101.657,175.734c0.014,-0.112 0.045,-0.269 0.122,-0.463c-0.032,0.148 -0.073,0.302 -0.122,0.463Z" style="fill:#fed4d5;"/><path d="M93.419,191.693c0,0 -0.329,0.516 -0.455,0.709c-2.645,0.427 -4.155,0.558 -6.324,0.784c-3.924,0.377 -3.904,0.318 -7.821,0.5c-8.364,0.054 -8.32,-0.018 -13.516,-0.468l-1.446,-0.131l-2.853,-0.355l-1.399,-0.194c-2.53,-0.395 -2.496,-0.386 -5.02,-0.859l-5.655,-1.265l-0.413,-0.113l-2.418,-0.641l-1.503,-0.443c-2.835,-0.872 -3.173,-0.948 -5.369,-1.738c1.55,-2.358 4.395,-5.466 10.533,-9.253c-2.803,-0.935 -1.96,-0.643 -6.426,-3.185c-2.908,-1.656 -4.149,-3.243 -4.769,-3.76c-0.985,-0.821 -0.961,-0.806 -1.906,-1.639l-0.201,-0.166c-0.695,-0.646 -0.709,-0.693 -1.282,-1.234c-0.019,-0.005 -0.036,-0.025 -0.053,-0.05l-0.118,-0.111l-0.556,-0.52l-1.067,-1.072c-1.379,-1.5 -1.414,-1.424 -2.776,-2.919c-0.439,-0.468 -0.449,-0.418 -0.885,-0.882c-0.138,-0.146 -0.126,-0.137 -1.7,-1.848l-0.672,-0.751c-1.476,-1.638 -3.982,-4.537 -4.325,-4.934c-0.11,-0.146 -0.106,-0.124 -1.448,-1.761l-0.321,-0.373l-0.78,-1.022l-0.971,-1.143c-1.457,-1.951 -1.425,-1.945 -2.904,-3.877c-1.025,-1.458 -1.033,-1.404 -2.066,-2.882c-0.578,-0.864 -0.562,-0.844 -1.159,-1.723l-0.597,-0.918l-0.799,-1.233l-0.687,-1.075l-0.401,-0.682l-1.343,-2.185c-0.19,-0.359 -1.033,-1.953 -2.397,-4.481l-0.579,-1.137l-0.664,-1.446l-0.125,-0.3l-0.316,-0.73l-1.03,-2.507l-0.81,-2.458l-0.422,-1.41l-0.453,-1.838l-0.351,-2.135c-0.6,-5.054 -0.463,-5.702 0.097,-9.616l0.07,-0.343c0.12,-0.917 0.187,-0.889 0.123,-1.796l-0.351,-0.728l-0.703,-1.418c-1.072,-2.958 -1.047,-2.931 -1.55,-6.014l-0.089,-1.781l0.106,-2.142l0.31,-2.148l0.177,-0.668c0.525,-1.778 0.505,-1.746 1.137,-3.522c1.925,-3.871 2.32,-4.808 6.287,-8.552l0.379,-0.325c2.186,-1.626 2.198,-1.57 4.56,-2.923l0.304,-0.134c4.764,-1.871 5.586,-1.853 10.024,-1.768l0.354,0.038c1.636,0.287 1.604,0.257 3.223,0.685c3.356,1.234 3.31,1.3 6.078,3.597l1.037,1.107l0.631,0.78l1.036,1.435l0.757,1.389c2.054,4.328 1.719,4.735 1.949,11.357l0.096,0.747c0.271,1.225 0.3,1.194 0.651,2.419l0.48,1.157l0.518,0.981c0.684,1.187 1.314,1.625 0.723,2.63c-0.835,0.623 -1.262,0.589 -1.491,0.698c-0.711,0.337 -0.325,0.535 -0.22,1.281l0.518,1.5l0.096,0.331l0.075,0.34l0.097,0.412l0.18,1.398c-0.016,1.077 0.003,1.037 -0.119,2.131l-0.32,1.068l-0.457,1.004c-0.985,1.336 -0.883,1.398 -2.257,2.384l-0.151,0.124l-1.094,0.639l-1.747,0.775c-0.132,0.059 -1.546,0.402 -1.418,1.142c0.048,0.279 0.115,0.241 2.367,2.623c0.184,0.223 0.135,0.229 0.31,0.44c0.088,0.106 0.083,0.097 1.114,1.313l0.318,0.474l0.14,0.162c2.161,3.451 2.126,3.441 4.05,7.049l0.486,0.812l0.392,0.669c-0.202,-0.023 -0.385,0.185 -0.587,0.162c-0.127,-0.014 -1.285,-1.568 -7.577,-5.4c-1.021,-0.542 -0.95,-0.615 -2.05,-1.013l-0.194,0.235c0.081,0.442 0.2,0.351 2.041,1.603l0.686,0.407c1.622,0.756 4.641,3.211 5.022,3.521c0.163,0.122 0.735,0.549 1.97,1.615l0.562,0.51l0.562,0.507l1.222,1.268l0.194,0.161c0.726,0.559 0.714,0.567 0.784,0.604c3.466,1.825 3.483,1.741 6.812,3.858c1.287,0.909 1.25,0.882 2.51,1.776c4.5,3.102 6.62,6.222 7.063,6.874c0.427,0.89 0.437,0.86 0.452,1.844c-0.867,1.776 -2.899,1.097 -4.753,0.92l-0.757,-0.149l-1.753,-0.451l-1.407,-0.415l-0.422,-0.133c-2.538,-0.867 -2.501,-0.89 -4.988,-1.824l-0.304,-0.124l-0.416,-0.185c-2.166,-0.899 -2.145,-0.875 -4.263,-1.843l-1.016,-0.47l-2.431,-1.186l-0.711,-0.356l-0.423,-0.23c-3.631,-1.915 -3.607,-1.873 -7.098,-3.955c-0.461,-0.276 -3.149,-1.883 -5.67,-3.595l-0.814,-0.567l-0.899,-0.595l-0.397,-0.289l-1.007,-0.778l-2.211,-1.691l-1.006,-0.793l-0.758,-0.65l-1.352,-1.144l-1.258,-1.21l-0.919,-0.88l-1.043,-1.088c-1.423,-1.53 -3.286,-4.119 -3.329,-4.15c-0.429,-0.31 -0.422,0.033 -0.597,0.046c0.989,1.757 0.801,1.852 3.257,4.724l1.14,1.39l2.105,2.195l1.087,1.051l2.121,1.822l1.798,1.422l0.791,0.589l0.631,0.478l1.853,1.325l0.154,0.123l0.668,0.42l2.154,1.399c1.074,0.671 3.272,1.957 3.558,2.124c4.325,2.398 5.781,3.066 5.903,3.13l0.134,0.085l1.304,0.609l0.699,0.368c3.382,1.682 3.361,1.641 6.783,3.183l0.713,0.343l0.724,0.338c5.614,2.626 5.569,2.614 6.056,2.834l1.427,0.708l1.439,0.683l0.293,0.134l0.129,0.086l2.002,0.991l1.831,0.959c0.523,0.169 0.481,0.18 1.052,0.247c0.472,0.611 0.567,0.506 7.171,4.312c4.649,2.838 4.661,2.775 9.162,5.845c2.375,1.623 2.328,1.647 2.547,1.761c0.878,0.458 0.654,-0.438 1.989,-12.213c0.738,-5.206 0.724,-5.178 1.466,-10.362c0.272,-1.745 2.592,-16.636 3.991,-21.718c0.473,-1.963 0.452,-1.924 0.906,-3.872c0.293,-0.974 0.267,-0.935 0.879,-3.249c1.349,-4.335 1.337,-4.299 2.821,-8.564l0.161,-0.298c0.605,-1.664 0.391,-1.715 1.222,-3.284c0.716,-1.968 0.703,-1.939 1.631,-3.837c0.606,-1 0.564,-1.019 0.618,-1.104l0.535,0.507c1.672,-2.074 1.592,-2.087 3.467,-3.987l0.368,-0.338l1.435,-1.031l0.247,-0.159l0.692,-0.406l0.726,-0.349l0.426,-0.189l1.779,-0.656l1.369,-0.271l1.092,-0.12c4.016,-0.071 4.008,0.079 7.095,1.018c4.372,1.824 4.686,2.299 7.337,5.386c0.745,1.318 0.735,1.284 1.381,2.676c2.484,6.573 1.708,11.244 0.077,21.054l-0.409,1.836l-0.108,0.692l-0.144,0.683l-0.395,1.77c-1.467,5.921 -1.417,5.91 -3.207,11.737c-1.476,4.511 -1.402,4.497 -3.086,8.943l-0.408,1.047l-0.886,2.213c-1.333,3.196 -1.299,3.178 -2.702,6.32l-0.712,1.422c-0.2,0.399 -1.783,3.555 -2.514,4.973l-0.619,1.112c-1.459,2.546 -1.435,2.549 -1.563,2.769c-1.266,2.078 -1.245,2.06 -2.619,4.055c0,0 -3.862,7.085 -4.693,8.622c-0.793,1.125 -5.293,10.144 -6.073,11.392Z" style="fill:#fed4d5;"/><path d="M93.419,191.693c-0.037,0.059 -0.075,0.12 -0.116,0.184c0.015,-0.045 0.029,-0.087 0.042,-0.125l0.074,-0.059Z" style="fill:#fed4d5;"/><path d="M102.268,174.46c-0.198,0.311 -0.316,0.483 -0.385,0.585c0.09,-0.174 0.214,-0.37 0.385,-0.585Z" style="fill:#fed4d5;"/><path d="M58.474,138.562c-1.623,-1.663 -1.542,-1.697 -2.908,-3.554c-3.47,-6.253 0.828,-10.121 3.316,-12.877c0.182,-0.159 0.163,-0.17 2.237,-2.024c0.527,-0.405 0.486,-0.406 0.994,-0.789c0.805,-0.626 5.032,-3.915 10.204,-7.634l0.786,-0.62c0.307,-0.247 0.3,-0.197 0.625,-0.458c0.076,-0.061 0.069,-0.058 0.929,-0.784l1.02,-0.793l0.764,-0.65c3.57,-2.924 5.759,-5.715 6.194,-6.27c0.094,-0.136 0.611,-0.887 1.182,-1.694l1.161,-2.096l0.083,-0.129c1.754,-0.384 7.255,-3.343 7.639,-3.495c2.919,-1.154 12.507,-6.166 13.888,-5.861c1.329,0.294 1.338,0.096 1.43,0.166c0.175,0.134 0.202,0.41 0.378,0.544c-1.313,0.331 -2.624,0.369 -5.417,1.856l-1.103,0.687l-1.061,0.73l-0.782,0.664l-0.57,0.505l-0.363,0.351c-0.094,0.108 -0.097,0.073 -0.176,0.164c-0.04,0.046 -0.037,0.043 -0.495,0.585l-0.169,0.221l-0.487,0.535c-1.165,1.561 -1.115,1.548 -2.239,3.129c-0.054,0.086 -0.012,0.104 -0.618,1.104c-0.928,1.898 -0.915,1.87 -1.631,3.837c-0.831,1.569 -0.617,1.621 -1.222,3.284l-0.161,0.298c-1.484,4.266 -1.472,4.23 -2.821,8.564c-0.612,2.314 -0.586,2.275 -0.879,3.249c-0.454,1.948 -0.433,1.909 -0.906,3.872c-1.399,5.082 -3.719,19.972 -3.991,21.718c-0.742,5.184 -0.729,5.156 -1.466,10.362c-1.335,11.775 -1.112,12.672 -1.989,12.213c-0.22,-0.115 -0.173,-0.138 -2.547,-1.761c-4.502,-3.069 -4.513,-3.007 -9.162,-5.845c-6.604,-3.806 -6.698,-3.702 -7.171,-4.312c1.716,-1.535 1.599,-1.606 3.015,-3.446c0.335,-0.59 3.751,-6.605 1.696,-8.315l-0.822,-0.536l-1.093,-0.686c-1.837,-1.236 -1.805,-1.212 -3.539,-2.545c-0.887,-0.733 -0.866,-0.718 -1.751,-1.467Z" style="fill:#fb8eae;"/></g></svg>