<?xml version="1.0" encoding="UTF-8" standalone="no"?>
<!DOCTYPE svg PUBLIC "-//W3C//DTD SVG 1.1//EN" "http://www.w3.org/Graphics/SVG/1.1/DTD/svg11.dtd">
<svg width="100%" height="100%" viewBox="0 0 131 154" version="1.1" xmlns="http://www.w3.org/2000/svg" xmlns:xlink="http://www.w3.org/1999/xlink" xml:space="preserve" xmlns:serif="http://www.serif.com/" style="fill-rule:evenodd;clip-rule:evenodd;stroke-linejoin:round;stroke-miterlimit:2;">
    <g transform="matrix(1,0,0,1,-1613.305657,-109.217384)">
        <g id="Periodentasse" transform="matrix(0.206585,0,0,0.206585,1601.260556,100.495886)">
            <path d="M636.473,42.93C640.756,43.326 673.31,40.862 687.642,77.442C707.092,127.083 652.089,150.666 651.468,151.473C647.763,156.294 639.743,178.445 635.297,208.466C620.102,311.076 652.95,491.744 470.234,615.106C412.343,654.192 431.245,667.799 427.571,737.503C425.193,782.61 362.532,806.377 329.884,761.248C310.928,735.045 333.818,675.188 313.185,644.703C292.245,613.763 237.356,601.8 182.104,518.753C95.319,388.309 137.326,235.574 100.256,154.613C96.187,145.724 77.706,145.75 63.664,120.417C49.149,94.23 65.018,49.751 100.455,44.217C115.242,41.908 115.287,42.237 363.5,42.23C619.8,42.223 619.798,42.176 636.473,42.93ZM86.896,92.557C85.003,128.149 116.747,123.221 140.5,123.22C639.408,123.195 639.481,123.484 644.418,122.181C672.965,114.644 668.157,70.67 637.503,70.334C596.065,69.881 596.102,70.784 119.5,70.35C108.97,70.341 92.294,69.712 86.896,92.557ZM490.517,475.822C512.648,474.372 512.582,474.615 514.498,474.471C556.568,471.306 562.176,473.362 565.244,466.384C604.604,376.86 599.093,281.902 605.625,224.513C612.27,166.14 623.592,151.554 618.584,151.111C614.343,150.735 525.587,150.739 517.5,150.739C238.384,150.75 131.744,150.253 130.654,150.817C129.537,151.396 131.146,157.038 131.295,157.559C152.978,233.591 142.429,273.965 156.453,367.507C165.407,427.227 184.777,467.499 185.953,469.079C187.426,471.058 187.686,471.407 216.526,473.098C344.541,480.608 382.149,479.987 490.517,475.822ZM266.487,503.79C251.746,503.067 251.766,503.037 250.485,502.985C205.49,501.158 203.238,499.627 203.664,502.473C203.777,503.227 227.574,531.9 228.506,532.492C232.676,535.14 368.975,544.08 487.526,535.823C516.049,533.836 519.922,534.912 523.037,531.106C545.717,503.388 547.05,503.267 546.136,501.711C545.682,500.939 538.187,501.388 537.497,501.429C498.158,503.783 434.258,505.604 416.503,505.867C339.453,507.008 272.348,503.934 266.487,503.79ZM377.462,758.108C419.39,748.498 388.395,704.289 404.373,650.46C417.797,605.232 444.447,605.029 490.017,566.063C493.386,563.182 487.783,563.642 487.506,563.665C480.242,564.261 428.691,566.787 402.501,567.086C269.497,568.6 251.196,558.052 262.166,567.858C307.454,608.341 353.692,606.173 350.693,701.504C350.124,719.598 341.935,758.035 377.462,758.108Z" style="fill:rgb(1,1,1);"/>
        </g>
    </g>
</svg>
