<?xml version="1.0" encoding="UTF-8" standalone="no"?>
<!DOCTYPE svg PUBLIC "-//W3C//DTD SVG 1.1//EN" "http://www.w3.org/Graphics/SVG/1.1/DTD/svg11.dtd">
<svg width="100%" height="100%" viewBox="0 0 152 153" version="1.1" xmlns="http://www.w3.org/2000/svg" xmlns:xlink="http://www.w3.org/1999/xlink" xml:space="preserve" xmlns:serif="http://www.serif.com/" style="fill-rule:evenodd;clip-rule:evenodd;stroke-linejoin:round;stroke-miterlimit:2;">
    <g transform="matrix(1,0,0,1,-2037.518531,-89.244168)">
        <g id="Binde" transform="matrix(1,0,0,1,1988,57)">
            <path d="M201.117,67.528C200.547,99.822 179.485,99 180.961,108.434C183.576,125.147 191.464,147.173 168.247,163.117C150.071,175.599 126.557,161.598 121.586,165.609C121.575,165.617 118.033,170.33 111.968,175.132C102.632,182.523 87.319,190.124 69.709,181.094C47.053,169.477 42.632,138.689 60.692,120.697C68.266,113.152 70.347,113.362 69.104,105.564C67.836,97.609 56.595,64.066 89.58,50.707C103.796,44.949 125.075,55.638 129.462,51.462C130.665,50.317 152.029,21.453 181.416,36.659C188.552,40.351 193.317,46.675 194.13,47.753C199.203,54.486 200.873,65.868 201.117,67.528ZM78.625,67.594C70.632,79.847 72.728,82.279 75.137,98.559C75.796,103.017 75.349,103.316 76.344,103.771C78.425,104.724 78.31,103.266 97.131,84.132C119.83,61.055 122.426,59.331 119.418,58.754C91.261,53.351 86.267,58.519 78.625,67.594ZM169.414,39.961C162.887,39.464 162.85,38.704 156.474,40.409C151.131,41.838 147.501,44.422 146.806,44.917C140.982,49.063 140.195,50.261 102.593,88.548C93.514,97.793 82.288,109.2 68.326,123.333C35.353,156.712 78.136,194.127 106.445,170.435C106.713,170.21 183.74,92.731 185.191,91.207C186.935,89.378 198.449,77.295 192.555,60.482C186.367,42.826 171.828,40.749 169.414,39.961ZM146.426,160.961C166.719,163.073 179.864,146.382 177.012,128.577C174.92,115.511 174.748,111.928 172.732,113.812C169.513,116.823 170.259,117.483 134.072,153.079C130.761,156.336 127.81,156.466 130.532,158.452C130.652,158.54 145.154,160.766 146.426,160.961Z" style="fill:rgb(30,51,61);"/>
        </g>
    </g>
</svg>
