<?xml version="1.0" encoding="UTF-8" standalone="no"?>
<!DOCTYPE svg PUBLIC "-//W3C//DTD SVG 1.1//EN" "http://www.w3.org/Graphics/SVG/1.1/DTD/svg11.dtd">
<svg width="100%" height="100%" viewBox="0 0 153 150" version="1.1" xmlns="http://www.w3.org/2000/svg" xmlns:xlink="http://www.w3.org/1999/xlink" xml:space="preserve" xmlns:serif="http://www.serif.com/" style="fill-rule:evenodd;clip-rule:evenodd;stroke-linejoin:round;stroke-miterlimit:2;">
    <g transform="matrix(1,0,0,1,-1829.372944,-92.154762)">
        <g id="Slipeinlage">
            <path d="M1916.6,101.581C1922.258,94.773 1927.925,93.065 1933.479,92.292C1948.239,90.239 1977.254,111.499 1981.459,132.719C1983.256,141.789 1980.521,150.852 1970.203,158.083C1920.186,193.137 1900.8,225.663 1894.145,233.174C1871.234,259.035 1831.345,217.76 1829.5,198.5C1826.966,172.047 1862.629,175.183 1916.6,101.581ZM1903.546,129.54C1913.305,117.68 1913.419,117.912 1920.009,109.131C1922.639,105.627 1924.673,101.917 1931.599,99.846C1946.776,95.307 1976.411,122.542 1974.807,139.544C1973.355,154.94 1937.259,162.396 1891.184,225.27C1872.498,250.768 1845.079,214.599 1840.85,208.28C1839.753,206.642 1830.914,193.435 1842.666,183.701C1863.531,166.419 1866.595,169.806 1903.546,129.54ZM1903.207,157.24C1900.326,160.068 1878.416,181.571 1863.403,188.266C1862.134,188.832 1851.726,186.948 1863.244,180.066C1896.556,160.162 1916.578,129.563 1920.068,124.23C1920.409,123.708 1924.34,117.701 1927.395,121.568C1931.24,126.436 1907.564,152.271 1903.207,157.24ZM1902.253,183.29C1903.706,181.634 1912.857,171.202 1921.844,163.934C1948.225,142.602 1950.024,144.061 1952.22,145.843C1957.316,149.977 1945.706,154.537 1934.783,162.867C1896.957,191.71 1892.397,214.191 1886.503,213.476C1878.043,212.45 1890.796,197.035 1902.253,183.29Z" style="fill:rgb(29,51,61);"/>
        </g>
    </g>
</svg>
