<?xml version="1.0" encoding="UTF-8" standalone="no"?>
<!DOCTYPE svg PUBLIC "-//W3C//DTD SVG 1.1//EN" "http://www.w3.org/Graphics/SVG/1.1/DTD/svg11.dtd">
<svg width="100%" height="100%" viewBox="0 0 154 108" version="1.1" xmlns="http://www.w3.org/2000/svg" xmlns:xlink="http://www.w3.org/1999/xlink" xml:space="preserve" xmlns:serif="http://www.serif.com/" style="fill-rule:evenodd;clip-rule:evenodd;stroke-linejoin:round;stroke-miterlimit:2;">
    <g transform="matrix(1,0,0,1,-2234.412309,-106.070161)">
        <g id="Periodenunterwösche">
            <path d="M2313.529,213.689C2287.249,215.713 2289.632,186.179 2280.054,169.767C2263.241,140.958 2236.809,139.026 2235.007,133.701C2234.575,132.425 2233.671,110.073 2235.584,107.563C2239.894,101.91 2254.534,113.923 2299.477,116.859C2344.72,119.814 2380.025,104.157 2384.614,106.289C2389.117,108.382 2388.053,133.569 2385.534,135.536C2381.76,138.484 2344.894,146.605 2334.78,187.569C2331.831,199.513 2330.016,209.551 2313.529,213.689ZM2380.164,121.498C2380.064,127.899 2381.642,129.488 2375.703,131.983C2326.745,152.548 2329.649,191.745 2322.371,200.399C2312.357,212.307 2298.743,206.511 2294.831,190.414C2294.229,187.937 2292.343,172.656 2280.029,156.902C2272.275,146.982 2258.971,137.475 2248.29,132.975C2247.699,132.726 2241.702,130.2 2241.645,128.486C2241.343,119.301 2241.164,113.652 2243.517,114.141C2262.752,118.134 2302.264,134.606 2373.488,115.455C2373.999,115.318 2379.639,113.801 2380.06,114.687C2380.06,114.687 2380.156,120.954 2380.164,121.498Z" style="fill:rgb(30,52,62);"/>
        </g>
    </g>
</svg>
