<?xml version="1.0" encoding="UTF-8" standalone="no"?>
<!DOCTYPE svg PUBLIC "-//W3C//DTD SVG 1.1//EN" "http://www.w3.org/Graphics/SVG/1.1/DTD/svg11.dtd">
<svg width="100%" height="100%" viewBox="0 0 151 153" version="1.1" xmlns="http://www.w3.org/2000/svg" xmlns:xlink="http://www.w3.org/1999/xlink" xml:space="preserve" xmlns:serif="http://www.serif.com/" style="fill-rule:evenodd;clip-rule:evenodd;stroke-linejoin:round;stroke-miterlimit:2;">
    <g transform="matrix(1,0,0,1,-1402.846344,-114.814889)">
        <g id="Tampon" transform="matrix(1,0,0,1,1349,79)">
            <path d="M72.523,149.718C76.128,149.242 85.673,150.128 99.37,137.375C102.263,134.682 94.772,129.156 93.834,128.205C87.765,122.053 87.918,112.779 92.88,106.82C93,106.675 154.596,44.685 156.693,42.719C172.565,27.838 200.324,38.812 203.37,58.525C206.193,76.797 200.964,79.484 166.331,114.337C130.374,150.523 130.017,151.713 122.515,151.27C110.06,150.534 109.962,137.574 103.427,143.422C85,159.91 74.973,155.164 70.578,157.656C58.861,164.301 63.017,186.062 58.379,188.164C52.207,190.961 54.082,177.448 54.219,176.464C57.623,151.931 68.221,150.672 72.523,149.718ZM174.522,42.931C159.709,45.502 161.568,49.465 117.854,91.857C96.226,112.831 96.339,114.835 96.489,117.501C96.638,120.162 96.399,120.654 114.854,139.155C125.341,149.668 128.385,142.097 144.78,125.784C192.898,77.906 193.19,77.903 195.25,72.399C198.633,63.363 196.796,44.088 174.522,42.931Z" style="fill:rgb(29,51,61);"/>
            <path d="M161.428,69.432C119.406,110.781 112.229,122.724 108.858,115.362C107.057,111.428 122.874,98.612 139.412,81.414C163.8,56.052 163.693,55.754 166.59,54.829C169.467,53.91 172.84,57.861 169.397,61.408C165.414,65.512 165.389,65.323 161.428,69.432Z" style="fill:rgb(31,50,61);"/>
            <path d="M181.481,69.074C189.024,70.836 183.786,75.824 174.202,85.197C142.208,116.483 129.436,132.281 125.475,131.655C117.35,130.371 128.595,120.648 141.638,107.639C178.252,71.121 177.729,70.218 181.481,69.074Z" style="fill:rgb(27,50,59);"/>
        </g>
    </g>
</svg>
