<?xml version="1.0" encoding="UTF-8" standalone="no"?>
<!DOCTYPE svg PUBLIC "-//W3C//DTD SVG 1.1//EN" "http://www.w3.org/Graphics/SVG/1.1/DTD/svg11.dtd">
<svg width="100%" height="100%" viewBox="0 0 233 132" version="1.1" xmlns="http://www.w3.org/2000/svg" xmlns:xlink="http://www.w3.org/1999/xlink" xml:space="preserve" xmlns:serif="http://www.serif.com/" style="fill-rule:evenodd;clip-rule:evenodd;stroke-linejoin:round;stroke-miterlimit:2;">
    <g transform="matrix(1,0,0,1,-2224.044573,-520.197364)">
        <g id="Bildschirmfoto-2026-07-19-um-19.09.03.png" serif:id="Bildschirmfoto 2026-07-19 um 19.09.03.png" transform="matrix(1,0,0,1,2205,508)">
            <path d="M240.46,15.547C246.483,22.305 250.149,36.55 250.65,38.495C249.528,38.185 249.576,37.983 248.39,38.074C243.87,38.421 234.242,36.315 213.397,42.083C181.327,50.958 161.862,77.286 160.372,83.061C154.106,84.399 142.868,83.347 140.879,87.67C137.996,93.936 137.624,125.381 140.863,129.207C142.956,131.679 147.324,132.876 151.586,135.392C152.111,138.957 152.217,139.224 152.341,139.537C152.819,140.741 153.165,140.736 152.736,141.956C152.694,142.075 152.436,142.001 152.394,142.121C134.349,144.782 124.611,142.992 117.278,141.925C118.113,138.758 118.236,138.795 118.525,135.535C121.166,133.762 126.954,132.094 129.382,129.391C132.999,125.365 132.207,100.394 130.861,92.435C129.829,86.331 128.611,85.754 125.607,85.052C118.577,83.41 111.579,83.567 110.5,83.5C109.483,83.437 109.611,83.137 109.235,82.982C103.869,72.639 93.027,63.134 91.354,61.667C80.412,52.075 59.84,38.247 26.485,39.193C23.261,39.284 20.628,39.984 20.5,39.96C20.213,39.907 20.036,39.562 19.749,39.509C21.097,32.095 25.063,21.591 29.5,16.5C29.852,16.59 30.148,16.843 30.5,16.932C34.734,18.005 97.235,21.516 116.499,21.737C179.213,22.459 185.446,20.803 203.532,19.909C214.341,19.375 238.38,16.268 239.5,15.997C239.843,15.914 240.116,15.63 240.46,15.547Z" style="fill:rgb(246,153,232);"/>
            <path d="M19.749,39.509C20.036,39.562 20.213,39.907 20.5,39.96C20.628,39.984 23.261,39.284 26.485,39.193C59.84,38.247 80.412,52.075 91.354,61.667C93.027,63.134 103.869,72.639 109.235,82.982C109.611,83.137 109.483,83.437 110.5,83.5C111.579,83.567 118.577,83.41 125.607,85.052C128.611,85.754 129.829,86.331 130.861,92.435C132.207,100.394 132.999,125.365 129.382,129.391C126.954,132.094 121.166,133.762 118.525,135.535C118.236,138.795 118.113,138.758 117.278,141.925C114.834,141.623 114.808,141.783 113.574,141.282C105.8,138.127 47.69,80.832 27.599,56.423C16.904,43.429 18.935,42.188 19.749,39.509Z" style="fill:rgb(240,77,215);"/>
            <path d="M163.489,85.495C169.799,72.905 185.472,59.033 196.76,52.987C219.729,40.686 240.223,42.072 244.515,42.213C244.817,42.223 247.83,42.322 248.059,43.522C248.239,44.471 242.914,51.92 233.437,62.443C202.694,96.58 167.968,129.172 157.834,136.999C155.614,138.714 154.971,137.363 154.902,134.565C154.589,133.043 154.638,133.062 154.282,131.554C153.783,129.439 153.771,120.263 153.924,116.518C154.03,113.923 154.595,100.112 163.489,85.495Z" style="fill:rgb(246,153,232);"/>
            <path d="M106.46,84.51C119.7,107.315 116.918,124.788 116,132.454C115.95,132.878 115.462,136.957 114.586,137.611C113.661,138.303 113.277,138.009 102.52,128.477C99.783,126.052 69.855,97.852 59.05,85.933C56.334,82.937 36.116,63.402 24.194,46.71C24.024,46.471 22.384,44.176 22.444,43.496C22.568,42.081 26.438,42.164 31.504,42.17C49.823,42.19 67.942,48.878 78.707,56.19C92.838,65.789 98.961,72.975 106.46,84.51Z" style="fill:rgb(246,153,232);"/>
            <path d="M240.46,15.547C240.116,15.63 239.843,15.914 239.5,15.997C238.38,16.268 214.341,19.375 203.532,19.909C185.446,20.803 179.213,22.459 116.499,21.737C97.235,21.516 34.734,18.005 30.5,16.932C30.148,16.843 29.852,16.59 29.5,16.5C31.665,12.837 31.827,12.205 37.497,12.198C46.35,12.186 49.362,12.696 51.486,12.788C53.649,12.881 59.717,13.144 78.516,14.248C131.234,17.344 135.966,16.376 161.513,15.919C180.029,15.587 229.983,12.635 230.507,12.591C237.174,12.039 237.954,11.581 240.46,15.547Z" style="fill:rgb(240,77,215);"/>
            <path d="M250.65,38.495C250.746,38.974 251.435,42.426 250.844,44.597C248.908,51.713 220.506,81.121 219.334,82.343C195.184,107.541 169.409,131.607 164.572,135.589C159.103,140.091 159.421,141.058 152.394,142.121C152.436,142.001 152.694,142.075 152.736,141.956C153.165,140.736 152.819,140.741 152.341,139.537C152.217,139.224 152.111,138.957 151.586,135.392C151.872,135.345 152.129,135.701 152.416,135.654C152.63,135.619 152.599,135.574 154.902,134.565C154.971,137.363 155.614,138.714 157.834,136.999C167.968,129.172 202.694,96.58 233.437,62.443C242.914,51.92 248.239,44.471 248.059,43.522C247.83,42.322 244.817,42.223 244.515,42.213C240.223,42.072 219.729,40.686 196.76,52.987C185.472,59.033 169.799,72.905 163.489,85.495C163.249,85.25 164.138,84.794 163.897,84.549C163.683,84.33 163.642,84.441 160.372,83.061C161.862,77.286 181.327,50.958 213.397,42.083C234.242,36.315 243.87,38.421 248.39,38.074C249.576,37.983 249.528,38.185 250.65,38.495Z" style="fill:rgb(240,77,215);"/>
            <path d="M160.372,83.061C163.642,84.441 163.683,84.33 163.897,84.549C164.138,84.794 163.249,85.25 163.489,85.495C154.595,100.112 154.03,113.923 153.924,116.518C153.771,120.263 153.783,129.439 154.282,131.554C154.638,133.062 154.589,133.043 154.902,134.565C152.599,135.574 152.63,135.619 152.416,135.654C152.129,135.701 151.872,135.345 151.586,135.392C147.324,132.876 142.956,131.679 140.863,129.207C137.624,125.381 137.996,93.936 140.879,87.67C142.868,83.347 154.106,84.399 160.372,83.061Z" style="fill:white;"/>
            <g transform="matrix(-1,0,0,1,270.511919,0)">
                <path d="M160.372,83.061C163.642,84.441 163.683,84.33 163.897,84.549C164.138,84.794 163.249,85.25 163.489,85.495C154.595,100.112 154.03,113.923 153.924,116.518C153.771,120.263 153.783,129.439 154.282,131.554C154.638,133.062 154.589,133.043 154.902,134.565C152.599,135.574 152.63,135.619 152.416,135.654C152.129,135.701 151.872,135.345 151.586,135.392C147.324,132.876 142.956,131.679 140.863,129.207C137.624,125.381 137.996,93.936 140.879,87.67C142.868,83.347 154.106,84.399 160.372,83.061Z" style="fill:white;"/>
            </g>
            <g transform="matrix(0.173539,0,0,0.173539,107.942148,20.901927)">
                <path d="M242.036,196.525C244.936,220.91 228.674,244.838 228.663,245.5C228.61,248.696 248.27,272.194 240.309,287.394C228.81,309.348 197.725,302.351 198.119,276.482C198.172,272.942 201.886,268.115 196.53,270.585C159.324,287.74 107.815,269.461 93.834,223.394C83.345,188.832 101.728,159.931 109.351,141.438C109.985,139.9 120.694,119.38 124.763,112.647C125.82,110.897 125.74,110.892 137.725,90.622C142.269,82.937 164.534,48.988 165.475,48.466C167.424,47.384 168.888,50.302 186.702,77.371C196.793,92.706 231.094,148.909 239.233,181.56C242.39,194.226 241.961,195.929 242.036,196.525Z" style="fill:rgb(240,77,215);"/>
                <path d="M193.499,321.735C192.182,321.638 181.811,320.867 182.417,309.497C182.743,303.369 192.459,289.57 192.512,289.516C194.28,287.709 197.431,294.243 200.89,300.277C209.369,315.068 201.071,321.212 193.499,321.735Z" style="fill:rgb(240,77,215);"/>
            </g>
        </g>
    </g>
</svg>
